<?xml version="1.0" encoding="utf-8"?>
<!-- Generator: Adobe Illustrator 16.0.0, SVG Export Plug-In . SVG Version: 6.00 Build 0)  -->
<!DOCTYPE svg PUBLIC "-//W3C//DTD SVG 1.1//EN" "http://www.w3.org/Graphics/SVG/1.1/DTD/svg11.dtd">
<svg version="1.1" id="slash_x2B_13" xmlns="http://www.w3.org/2000/svg" xmlns:xlink="http://www.w3.org/1999/xlink" x="0px"
	 y="0px" width="28.222px" height="20.634px" viewBox="299.157 43.43 28.222 20.634"
	 enable-background="new 299.157 43.43 28.222 20.634" xml:space="preserve">
<path id="num-2" fill="#C2C2C2" d="M326.465,48.442c0,1.281-0.358,2.329-1.078,3.145c-0.719,0.813-1.733,1.358-3.053,1.633v0.109
	c1.609,0.203,2.805,0.715,3.582,1.539c0.777,0.822,1.166,1.902,1.166,3.238c0,1.913-0.662,3.385-1.99,4.414
	c-1.326,1.029-3.211,1.544-5.654,1.544c-1.062,0-2.034-0.08-2.918-0.239c-0.883-0.16-1.739-0.441-2.573-0.845v-2.169
	c0.869,0.43,1.797,0.757,2.778,0.98c0.984,0.225,1.916,0.336,2.795,0.336c3.47,0,5.201-1.358,5.201-4.076
	c0-2.436-1.912-3.651-5.735-3.651h-1.979v-1.963h2.006c1.564,0,2.806-0.347,3.722-1.037c0.914-0.69,1.37-1.649,1.37-2.876
	c0-0.979-0.336-1.747-1.008-2.307c-0.674-0.559-1.586-0.838-2.737-0.838c-0.88,0-1.707,0.119-2.486,0.357
	c-0.777,0.238-1.664,0.678-2.662,1.317l-1.152-1.537c0.822-0.649,1.771-1.16,2.851-1.53c1.074-0.371,2.207-0.557,3.396-0.557
	c1.949,0,3.463,0.445,4.543,1.339S326.465,46.887,326.465,48.442z"/>
<path id="num-1" fill="#C2C2C2" d="M306.397,63.79h-2.226V49.485c0-1.189,0.035-2.314,0.109-3.377
	c-0.191,0.191-0.408,0.395-0.646,0.604c-0.237,0.211-1.327,1.104-3.269,2.678l-1.209-1.564l5.312-4.105h1.921v20.07H306.397z"/>
</svg>
