<?xml version="1.0" encoding="utf-8"?>
<!-- Generator: Adobe Illustrator 16.0.0, SVG Export Plug-In . SVG Version: 6.00 Build 0)  -->
<!DOCTYPE svg PUBLIC "-//W3C//DTD SVG 1.1//EN" "http://www.w3.org/Graphics/SVG/1.1/DTD/svg11.dtd">
<svg version="1.1" id="Layer_1" xmlns="http://www.w3.org/2000/svg" xmlns:xlink="http://www.w3.org/1999/xlink" x="0px" y="0px"
   width="14px" height="14px" viewBox="0 0 14 14" enable-background="new 0 0 14 14" xml:space="preserve">
<path fill="#CACACA" d="M0,6V1l1.682,1.682C2.902,1.057,4.77,0,7,0c3.866,0,7,3.133,7,7c0,3.865-3.134,7-7,7
  c-3.525,0-6.514-2.609-7-6h2c0.467,2.393,2.471,4.199,5,4.199c2.871,0,5.2-2.328,5.2-5.199c0-2.873-2.329-5.201-5.2-5.201
  c-1.646,0-3.229,0.77-4.234,1.965L5,6H0z"/>
</svg>
