<?xml version="1.0" encoding="utf-8"?>
<!-- Generator: Adobe Illustrator 16.0.0, SVG Export Plug-In . SVG Version: 6.00 Build 0)  -->
<!DOCTYPE svg PUBLIC "-//W3C//DTD SVG 1.1//EN" "http://www.w3.org/Graphics/SVG/1.1/DTD/svg11.dtd">
<svg version="1.1" id="bacon-and-eggs" xmlns="http://www.w3.org/2000/svg" xmlns:xlink="http://www.w3.org/1999/xlink" x="0px"
	 y="0px" width="367.86px" height="301.16px" viewBox="0 -30.001 367.86 301.16" enable-background="new 0 -30.001 367.86 301.16"
	 xml:space="preserve">
<rect id="slash" x="125.165" y="-4.529" transform="matrix(0.9542 0.2992 -0.2992 0.9542 41.2106 -33.1443)" fill="#E0E0E0" width="7.343" height="245.055"/>
<text transform="matrix(1 0 0 1 276.2271 27.7549)" fill="#C2C2C2" font-family="'OpenSans'" font-size="28.1143" letter-spacing="-1">13</text>
<g id="letter-i">
	<g id="bacon-meat">
			<linearGradient id="SVGID_1_" gradientUnits="userSpaceOnUse" x1="55.813" y1="25.2573" x2="55.813" y2="214.2007" gradientTransform="matrix(1 0 0 -1 0 242.1582)">
			<stop  offset="0" style="stop-color:#D63F2F"/>
			<stop  offset="0.1718" style="stop-color:#CD382D"/>
			<stop  offset="0.3124" style="stop-color:#D53E2F"/>
			<stop  offset="0.3252" style="stop-color:#D63F2F"/>
			<stop  offset="0.4172" style="stop-color:#CD382D"/>
			<stop  offset="0.7975" style="stop-color:#D63F2F"/>
			<stop  offset="1" style="stop-color:#CD382D"/>
		</linearGradient>
		<path fill="url(#SVGID_1_)" d="M27.553,216.901c-3.635,0-3.635-2.362-3.635-5.098v-5.479c0-6.847,1.027-10.308,2.021-13.655
			c0.992-3.344,2.019-6.801,2.019-13.525c0-6.804-1.044-10.403-2.054-13.886c-1.021-3.521-1.985-6.846-1.985-13.295
			c0-6.489,1.019-10.126,2.004-13.641c1-3.568,2.035-7.259,2.035-13.859c0-6.483-1.007-10.192-1.98-13.778
			c-1.012-3.729-2.059-7.585-2.059-14.681c0-7.004,1.026-10.383,2.019-13.65c0.993-3.271,2.021-6.653,2.021-13.55
			c0-6.933-1.035-10.457-2.036-13.864c-0.985-3.353-2.003-6.819-2.003-13.636v-8.251c0-2.734,0-5.096,3.635-5.096h52.484
			c3.633,0,3.633,2.362,3.633,5.096v8.251c0,6.977,1.044,10.494,2.054,13.896c1.02,3.435,1.983,6.679,1.983,13.284
			c0,6.689-1.027,10.234-2.021,13.662c-0.991,3.42-2.016,6.956-2.016,13.519c0,6.601,1.034,10.291,2.034,13.859
			c0.985,3.516,2.003,7.151,2.003,13.641c0,6.376-0.948,9.869-1.951,13.566c-1.026,3.779-2.086,7.688-2.086,14.893
			c0,7.123,1.043,10.561,2.052,13.885c1.021,3.362,1.985,6.538,1.985,13.316c0,6.816-1.018,10.283-2.002,13.637
			c-1,3.407-2.035,6.932-2.035,13.863v5.48c0,2.733,0,5.096-3.633,5.096H27.553L27.553,216.901z"/>
		<path fill="#BC392D" d="M80.037,28.36c3.086,0,3.229,1.609,3.229,4.692v8.251c0,7.035,1.053,10.581,2.071,14.01
			c1.011,3.406,1.966,6.623,1.966,13.169c0,6.632-1.019,10.148-2.005,13.549c-0.999,3.447-2.032,7.011-2.032,13.631
			c0,6.656,1.042,10.373,2.049,13.968c1.022,3.65,1.988,7.098,1.988,13.532c0,6.321-0.94,9.79-1.937,13.461
			c-1.033,3.806-2.101,7.741-2.101,14.998c0,7.185,1.052,10.649,2.07,14.002c1.012,3.333,1.967,6.481,1.967,13.199
			c0,6.759-0.964,10.044-1.986,13.521c-1.008,3.435-2.051,6.986-2.051,13.979v5.479c0,3.083-0.144,4.692-3.229,4.692H27.553
			c-3.088,0-3.231-1.609-3.231-4.692v-5.479c0-6.788,1.019-10.222,2.004-13.54c1-3.371,2.035-6.857,2.035-13.643
			c0-6.859-1.052-10.488-2.07-13.996c-1.013-3.492-1.969-6.791-1.969-13.184c0-6.436,0.966-9.882,1.989-13.531
			c1.008-3.595,2.05-7.312,2.05-13.969c0-6.538-1.014-10.272-1.994-13.884c-1.005-3.704-2.045-7.533-2.045-14.575
			c0-6.944,0.972-10.145,2.001-13.533c1.002-3.299,2.038-6.71,2.038-13.667c0-6.991-1.043-10.543-2.052-13.978
			c-1.022-3.479-1.987-6.764-1.987-13.522V33.05c0-3.083,0.144-4.692,3.231-4.692h52.484 M80.037,27.553c-4.037,0-48.447,0-52.484,0
			c-4.039,0-4.039,2.75-4.039,5.5s0,8.251,0,8.251c0,13.75,4.039,13.75,4.039,27.5s-4.039,13.148-4.039,27.2
			c0,14.05,4.039,15.368,4.039,28.459c0,13.093-4.039,14.408-4.039,27.5c0,13.093,4.039,13.771,4.039,27.181
			c0,13.412-4.039,13.45-4.039,27.182c0,0,0,2.73,0,5.48s0,5.5,4.039,5.5c4.037,0,48.447,0,52.484,0s4.037-2.75,4.037-5.5
			s0-5.48,0-5.48c0-13.75,4.037-13.75,4.037-27.5s-4.037-13.15-4.037-27.201s4.037-15.367,4.037-28.459
			c0-13.091-4.037-14.409-4.037-27.5s4.037-13.769,4.037-27.181c0-13.411-4.037-13.43-4.037-27.18v-8.251
			C84.074,30.303,84.074,27.553,80.037,27.553L80.037,27.553z"/>
	</g>
	<g id="bacon-fat">
		<rect x="16.984" y="42.436" fill="none" width="72.041" height="151.667"/>
		<g opacity="0.9" enable-background="new    ">
			<g>
				<defs>
					<path id="SVGID_2_" d="M84.074,95.664c0-13.091,4.037-13.769,4.037-27.181c0-13.411-4.037-13.43-4.037-27.18v-8.251
						c0-2.75,0-5.5-4.037-5.5s-48.447,0-52.484,0c-4.039,0-4.039,2.75-4.039,5.5s0,8.251,0,8.251c0,13.75,4.039,13.75,4.039,27.5
						s-4.039,13.148-4.039,27.2c0,14.05,4.039,15.368,4.039,28.459c0,13.092-4.039,14.408-4.039,27.5s4.039,13.77,4.039,27.18
						c0,13.412-4.039,13.451-4.039,27.183c0,0,0,2.729,0,5.479s0,5.5,4.039,5.5c4.037,0,48.447,0,52.484,0s4.037-2.75,4.037-5.5
						s0-5.479,0-5.479c0-13.75,4.037-13.75,4.037-27.5s-4.037-13.15-4.037-27.201s4.037-15.367,4.037-28.459
						C88.111,110.073,84.074,108.755,84.074,95.664z"/>
				</defs>
				<clipPath id="SVGID_3_">
					<use xlink:href="#SVGID_2_"  overflow="visible"/>
				</clipPath>
				<g clip-path="url(#SVGID_3_)">
					<path fill="none" stroke="#FFFFFF" stroke-width="6.0559" stroke-linecap="round" stroke-miterlimit="10" d="M43.701,27.553
						c0,2.75,0,8.251,0,8.251c0,13.75,4.037,13.75,4.037,27.5s-4.037,13.148-4.037,27.199c0,14.051,4.037,15.369,4.037,28.46
						c0,13.093-4.037,14.408-4.037,27.5c0,13.093,4.037,13.771,4.037,27.181c0,13.412-4.037,13.448-4.037,27.182c0,0,0,2.73,0,5.48"
						/>
					<path fill="none" stroke="#FFFFFF" stroke-width="6.0559" stroke-linecap="round" stroke-miterlimit="10" d="M63.887,35.804
						c0,13.75,4.037,13.75,4.037,27.5"/>
					<path fill="none" stroke="#FFFFFF" stroke-width="6.0559" stroke-linecap="round" stroke-miterlimit="10" d="M63.887,101.504
						c0,14.05,4.037,15.368,4.037,28.459c0,13.093-4.037,14.408-4.037,27.5c0,13.093,4.037,13.771,4.037,27.183
						c0,13.41-4.037,13.448-4.037,27.18c0,0,0,2.73,0,5.48"/>
				</g>
			</g>
		</g>
	</g>
</g>
<g id="letter-o">
	<g id="egg-cracked" opacity="0">
		<path id="egg-whites" fill="#FFFFFF" stroke="#E0E0E0" stroke-miterlimit="10" d="M350.875,127.938
			c0,32.42-21.02,55.252-45.09,73.332c-16.561,12.438-37.147,39.639-59.457,39.639c-24.592,0-47.092-29.764-64.414-44.594
			c-21.23-18.176-34.684-44.187-34.684-74.322c0-54.73,44.367-99.098,99.098-99.098c38.689,0,59.49,22.17,75.809,54.503
			C328.903,90.802,350.875,111.898,350.875,127.938z"/>
		<g id="egg-yolk">
			
				<radialGradient id="SVGID_4_" cx="-875.8403" cy="65.1826" r="92.0504" fx="-891.7599" fy="21.7952" gradientTransform="matrix(0.4037 0 0 -0.4037 585.9044 131.0729)" gradientUnits="userSpaceOnUse">
				<stop  offset="0" style="stop-color:#FFD24E"/>
				<stop  offset="0.5444" style="stop-color:#FED14C"/>
				<stop  offset="0.7997" style="stop-color:#FBCC44"/>
				<stop  offset="0.9946" style="stop-color:#F5C338"/>
				<stop  offset="1" style="stop-color:#F5C337"/>
			</radialGradient>
			<circle fill="url(#SVGID_4_)" cx="233.941" cy="109.604" r="37.161"/>
			
				<path opacity="0.75" fill="none" stroke="#FFFFFF" stroke-width="4.9548" stroke-linecap="round" stroke-linejoin="round" stroke-miterlimit="10" enable-background="new    " d="
				M206.69,109.604c0-6.588,2.336-12.63,6.229-17.342c4.998-6.053,12.562-9.91,21.021-9.91"/>
		</g>
	</g>
	<g id="egg-whole">
		<circle fill="none" cx="231.022" cy="118.268" r="80.194"/>
		<path fill="#E4A752" d="M299.172,124.078c0,47.269-32.303,84.655-72.15,84.655s-72.15-37.387-72.15-84.655
			c0-47.268,32.302-96.775,72.15-96.775S299.172,76.81,299.172,124.078z"/>
		<g id="crack-1" opacity="0">
			<path fill="#FFFFFF" d="M170.617,64.937l13.169,22.533l0.29,0.495l-0.226,0.462l-7.422,15.238l-0.082-0.983l10.539,14.775
				l0.25,0.351l-0.09,0.397l-6.533,29.212c-0.025,0.111-0.137,0.184-0.248,0.157c-0.108-0.023-0.179-0.13-0.16-0.237l5.048-29.506
				l0.161,0.747l-10.539-14.775l-0.333-0.467l0.251-0.516l7.422-15.238l0.063,0.957L166.504,67.67
				c-0.819-1.092-0.6-2.643,0.492-3.463c1.093-0.82,2.643-0.6,3.463,0.493C170.517,64.776,170.569,64.857,170.617,64.937z"/>
		</g>
		<g id="crack-2" opacity="0">
			<path fill="#FFFFFF" d="M183.497,87.349l3.781,4.287l-0.757-0.436h5h0.845l0.143,0.923l1,5.963l-0.411-0.629l5.166,4.492
				c0.127,0.11,0.141,0.308,0.03,0.436c-0.098,0.11-0.256,0.138-0.381,0.068l-5.967-3.338l-0.332-0.185l-0.078-0.466l-1-6.007
				l0.985,0.744h-5h-0.458l-0.299-0.256l-3.781-4.332c-0.361-0.418-0.314-1.027,0.104-1.388
				C182.505,86.863,183.136,86.931,183.497,87.349z"/>
		</g>
		<polyline id="crack-3" fill="none" stroke="#FFFFFF" stroke-linecap="round" stroke-miterlimit="10" stroke-opacity="0" points="
			186.1,120.083 210.417,134.134 215.85,149.597 		"/>
		<g id="crack-4" opacity="0">
			<polyline fill="#E4A752" points="212.021,138.761 235.982,149.237 244.206,161.119 			"/>
			<path fill="#FFFFFF" d="M212.249,138.241l23.933,10.543l0.016,0.007c0.082,0.036,0.147,0.095,0.193,0.165l7.815,12.163
				l-8.631-11.601l0.209,0.172l-23.977-10.44c-0.279-0.121-0.407-0.444-0.286-0.724s0.444-0.407,0.726-0.286L212.249,138.241z"/>
		</g>
		
			<path id="shell-highlight" opacity="0.2" fill="none" stroke="#FFFFFF" stroke-width="10" stroke-linecap="round" stroke-linejoin="round" stroke-miterlimit="10" enable-background="new    " d="
			M221.083,47.319c11.181,0,21.433,3.966,29.43,10.571c10.271,8.482,16.816,21.317,16.816,35.678"/>
	</g>
</g>
</svg>
