<?xml version="1.0" encoding="utf-8"?>
<!-- Generator: Adobe Illustrator 15.1.0, SVG Export Plug-In . SVG Version: 6.00 Build 0)  -->
<!DOCTYPE svg PUBLIC "-//W3C//DTD SVG 1.1//EN" "http://www.w3.org/Graphics/SVG/1.1/DTD/svg11.dtd">
<svg version="1.1" id="bowling-pin-and-ball" xmlns="http://www.w3.org/2000/svg" xmlns:xlink="http://www.w3.org/1999/xlink"
	 x="0px" y="0px" width="367.86px" height="301.16px" viewBox="0 0 367.86 301.16" enable-background="new 0 0 367.86 301.16"
	 xml:space="preserve">
<rect id="slash" x="145.523" y="31.502" transform="matrix(-0.9542 -0.2992 0.2992 -0.9542 245.4685 345.6487)" fill="#E0E0E0" width="7.344" height="245.061"/>
<path id="num-1" fill="#C2C2C2" d="M306.397,63.79h-2.225V49.485c0-1.189,0.035-2.314,0.109-3.377
	c-0.191,0.192-0.408,0.394-0.646,0.604c-0.238,0.211-1.328,1.103-3.27,2.677l-1.209-1.564l5.312-4.105h1.922v20.07H306.397z"/>
<path id="num-3" fill="#C2C2C2" d="M326.465,48.442c0,1.281-0.359,2.329-1.078,3.144c-0.719,0.814-1.734,1.359-3.053,1.634v0.109
	c1.609,0.202,2.805,0.714,3.582,1.538c0.777,0.823,1.166,1.903,1.166,3.239c0,1.913-0.662,3.384-1.99,4.414
	c-1.326,1.029-3.211,1.544-5.654,1.544c-1.062,0-2.035-0.08-2.918-0.24c-0.883-0.16-1.74-0.441-2.574-0.844v-2.169
	c0.869,0.43,1.797,0.757,2.779,0.981c0.984,0.224,1.916,0.336,2.795,0.336c3.469,0,5.201-1.359,5.201-4.077
	c0-2.435-1.912-3.651-5.736-3.651h-1.979v-1.963h2.006c1.564,0,2.805-0.346,3.721-1.037c0.914-0.69,1.371-1.649,1.371-2.876
	c0-0.979-0.336-1.747-1.008-2.306c-0.674-0.559-1.586-0.838-2.738-0.838c-0.879,0-1.707,0.119-2.486,0.357
	c-0.777,0.238-1.664,0.677-2.662,1.317l-1.152-1.537c0.822-0.649,1.771-1.16,2.852-1.53c1.074-0.371,2.207-0.557,3.395-0.557
	c1.949,0,3.463,0.446,4.543,1.339S326.465,46.887,326.465,48.442z"/>
<g id="letter-i">
	
		<linearGradient id="SVGID_1_" gradientUnits="userSpaceOnUse" x1="121.5186" y1="-324.2954" x2="29.5487" y2="-324.2954" gradientTransform="matrix(1 0 0 -1 0 -187.6797)">
		<stop  offset="0" style="stop-color:#E0E0E0"/>
		<stop  offset="1" style="stop-color:#FFFFFF"/>
	</linearGradient>
	<path fill="url(#SVGID_1_)" d="M72.299,244.122c-7.149,0-14.333-4.147-14.636-4.323l-0.102-0.06l-0.064-0.099
		c-12.905-19.619-20.609-43.006-20.609-62.559c0-14.604,5.08-27.56,10.458-41.276c4.816-12.284,9.797-24.987,11.495-39.849
		c1.736-10.329,0.649-16.053-0.727-23.301c-1.211-6.381-2.584-13.635-2.584-25.954c0-9.688,7.906-17.591,17.623-17.591h0.208
		c10.044,0,18.854,8.232,18.854,17.591c0,12.646-1.725,19.975-3.246,26.432C87.298,80.23,85.977,85.838,87.67,95.9
		c1.702,14.887,6.683,27.594,11.499,39.881c5.379,13.72,10.459,26.682,10.459,41.287c0,19.558-7.705,42.945-20.611,62.562
		l-0.064,0.102l-0.101,0.06c-0.302,0.177-7.485,4.326-14.636,4.326L72.299,244.122L72.299,244.122z"/>
	<path fill="#E0E0E0" d="M73.362,30.114c9.458,0,18.354,7.384,18.354,16.841c0,26.614-7.782,29.867-4.539,49.148
		c3.601,31.511,21.952,53.455,21.952,81.023c0,17.435-6.333,40.685-20.529,62.263c0,0-7.286,4.244-14.383,4.244l-1.917-0.004
		c-7.096,0-14.384-4.259-14.384-4.259c-14.193-21.578-20.527-44.853-20.527-62.283c0-27.569,18.35-49.557,21.95-81.069
		c3.243-19.28-3.308-22.448-3.308-49.062c0-9.458,7.667-16.841,17.123-16.841h0.631 M73.362,29.114h-0.208
		c-9.993,0-18.123,7.878-18.123,17.841c0,12.365,1.378,19.508,2.593,25.911c1.367,7.199,2.447,12.828,0.729,23.042l-0.004-0.002
		l-0.003,0.012c-1.69,14.797-6.659,27.462-11.464,39.716c-5.396,13.761-10.492,26.757-10.492,41.456
		c0,19.646,7.735,43.131,20.691,62.828l0.129,0.193l0.202,0.117c0.307,0.181,7.605,4.394,14.888,4.394l1.919-0.004
		c7.282,0,14.579-4.216,14.886-4.396l0.202-0.117l0.129-0.195c12.958-19.697,20.693-43.189,20.693-62.842
		c0-14.698-5.097-27.701-10.494-41.466c-4.805-12.257-9.774-24.931-11.464-39.726l-0.003-0.026l-0.004-0.026
		c-1.676-9.962-0.366-15.522,1.293-22.561c1.528-6.483,3.259-13.604,3.259-26.308C92.716,37.33,83.672,29.114,73.362,29.114
		L73.362,29.114z"/>
	<path fill="#E04A3F" d="M87.326,97.141c-0.048-0.384-0.104-0.765-0.149-1.152c-0.499-2.964-0.734-5.551-0.779-7.905
		c0,0-9.86-0.288-13.138-0.288c-3.279,0-13.141,0.288-13.141,0.288c-0.043,2.363-0.879,8.682-0.927,9.058
		c0,0,10.581-0.288,14.065-0.288C76.743,96.853,87.326,97.141,87.326,97.141z"/>
	<path fill="#E04A3F" d="M92.091,117.974c-0.983-2.946-1.779-5.97-2.575-9.065c0,0-11.587-0.515-16.258-0.515
		c-4.672,0-16.251,0.515-16.251,0.515c-0.795,3.095-1.594,6.119-2.577,9.065c0,0,12.98-0.522,18.828-0.522
		C79.105,117.452,92.091,117.974,92.091,117.974z"/>
	
		<path opacity="0.75" fill="none" stroke="#FFFFFF" stroke-width="5" stroke-linecap="round" stroke-linejoin="round" stroke-miterlimit="10" enable-background="new    " d="
		M65.852,49.213c0-5.399,4.376-9.745,9.773-9.745"/>
	
		<path opacity="0.75" fill="none" stroke="#FFFFFF" stroke-width="8" stroke-linecap="round" stroke-linejoin="round" stroke-miterlimit="10" enable-background="new    " d="
		M63.658,211.461c-7.694-11.695-11.126-24.312-11.126-33.761c0-10.599,5.339-19.675,9.139-30.151"/>
</g>
<g id="letter-o">
	<g id="letter-o-wrapper">
		
			<linearGradient id="SVGID_2_" gradientUnits="userSpaceOnUse" x1="334.8638" y1="-341.7124" x2="170.9789" y2="-341.7124" gradientTransform="matrix(1 0 0 -1 0 -187.6797)">
			<stop  offset="0" style="stop-color:#3078F0"/>
			<stop  offset="1" style="stop-color:#4387FD"/>
		</linearGradient>
		<circle fill="url(#SVGID_2_)" cx="251.276" cy="154.034" r="80.194"/>
		
			<path opacity="0.1" fill="none" stroke="#FFFFFF" stroke-width="9" stroke-linecap="round" stroke-linejoin="round" stroke-miterlimit="10" enable-background="new    " d="
			M212.944,201.723c-25.564-19.543-30.447-56.105-10.904-81.671"/>
		<circle fill="#2364D7" cx="230.776" cy="108.913" r="7.602"/>
		<circle fill="#2364D7" cx="271.776" cy="108.913" r="7.602"/>
		<circle fill="#2364D7" cx="251.276" cy="148.913" r="7.602"/>
		<path fill="#2364D7" d="M271.776,103.311c3.859,0,7.037,2.877,7.527,6.602c0.043-0.328,0.074-0.66,0.074-1
			c0-4.198-3.402-7.602-7.604-7.602c-4.194,0-7.603,3.403-7.603,7.602c0,0.34,0.029,0.672,0.072,1
			C264.739,106.188,267.918,103.311,271.776,103.311z"/>
		<path fill="#2364D7" d="M230.776,101.311c-4.197,0-7.602,3.403-7.602,7.602c0,0.34,0.029,0.672,0.072,1
			c0.488-3.725,3.672-6.602,7.525-6.602c3.857,0,7.037,2.877,7.525,6.602c0.043-0.328,0.074-0.66,0.074-1
			C238.377,104.715,234.975,101.311,230.776,101.311z"/>
		<path fill="#2364D7" d="M251.276,141.311c-4.197,0-7.602,3.403-7.602,7.602c0,0.34,0.029,0.672,0.072,1
			c0.488-3.725,3.672-6.602,7.525-6.602c3.857,0,7.037,2.877,7.525,6.602c0.043-0.328,0.074-0.66,0.074-1
			C258.877,144.715,255.475,141.311,251.276,141.311z"/>
	</g>
</g>
<path id="center" fill="#FFFFFF" stroke="#000000" stroke-miterlimit="10" d="M258.872,160.887"/>
</svg>