<?xml version="1.0" encoding="utf-8"?>
<!-- Generator: Adobe Illustrator 15.1.0, SVG Export Plug-In . SVG Version: 6.00 Build 0)  -->
<!DOCTYPE svg PUBLIC "-//W3C//DTD SVG 1.1//EN" "http://www.w3.org/Graphics/SVG/1.1/DTD/svg11.dtd">
<svg version="1.1" id="hot-and-burger" xmlns="http://www.w3.org/2000/svg" xmlns:xlink="http://www.w3.org/1999/xlink" x="0px"
	 y="0px" width="367.86px" height="301.16px" viewBox="0 0 367.86 301.16" enable-background="new 0 0 367.86 301.16"
	 xml:space="preserve">
<rect id="slash" x="145.992" y="31.052" transform="matrix(0.9542 0.2992 -0.2992 0.9542 52.8115 -37.7462)" fill="#E0E0E0" width="7.343" height="245.055"/>
<path id="num-1" fill="#C2C2C2" d="M306.396,63.79h-2.224V49.485c0-1.189,0.036-2.314,0.109-3.377
  c-0.191,0.192-0.407,0.394-0.645,0.604c-0.238,0.211-1.328,1.103-3.268,2.677l-1.209-1.564l5.313-4.105h1.922V63.79z"/>
<path id="num-3" fill="#C2C2C2" d="M326.465,48.442c0,1.281-0.359,2.329-1.077,3.144c-0.719,0.814-1.736,1.359-3.054,1.634v0.109
  c1.609,0.202,2.805,0.714,3.582,1.538c0.777,0.823,1.167,1.903,1.167,3.239c0,1.913-0.663,3.384-1.99,4.414
  c-1.327,1.029-3.212,1.544-5.656,1.544c-1.062,0-2.034-0.08-2.917-0.24s-1.741-0.441-2.574-0.844v-2.169
  c0.869,0.43,1.797,0.757,2.78,0.981c0.983,0.224,1.915,0.336,2.794,0.336c3.468,0,5.202-1.359,5.202-4.077
  c0-2.435-1.913-3.651-5.737-3.651h-1.978v-1.963h2.005c1.564,0,2.805-0.346,3.72-1.037c0.915-0.69,1.372-1.649,1.372-2.876
  c0-0.979-0.336-1.747-1.008-2.306c-0.674-0.559-1.586-0.838-2.739-0.838c-0.878,0-1.707,0.119-2.485,0.357
  c-0.777,0.238-1.665,0.677-2.662,1.317l-1.153-1.537c0.823-0.649,1.772-1.16,2.849-1.53c1.075-0.371,2.207-0.557,3.397-0.557
  c1.949,0,3.464,0.446,4.544,1.339S326.465,46.887,326.465,48.442z"/>

<g id="letter-i">
  <path fill="#DC8F37" d="M87.458,65.194c0,0-6.135-0.622-9.642,2.371v171.416c4.472,3.417,9.642,2.986,9.642,2.986
    c21.893,0,31.641-39.572,31.641-88.387S109.351,65.194,87.458,65.194z M66.005,65.194c-21.893,0-31.641,39.572-31.641,88.387
    s9.748,88.387,31.641,88.387c0,0,5.17,0.431,9.642-2.986V67.565C72.14,64.572,66.005,65.194,66.005,65.194z"/>
  <g opacity="0.1">
    <linearGradient id="SVGID_1_" gradientUnits="userSpaceOnUse" x1="79.0024" y1="153.5625" x2="118.8741" y2="153.5625">
      <stop  offset="0" style="stop-color:#8C6239"/>
      <stop  offset="1" style="stop-color:#FFFF00"/>
    </linearGradient>
    <path fill="url(#SVGID_1_)" d="M87.458,65.194c0,0-6.135-0.622-9.642,2.371v171.416c4.472,3.417,9.642,2.986,9.642,2.986
      c21.893,0,31.641-39.572,31.641-88.387S109.351,65.194,87.458,65.194z"/>
    
      <linearGradient id="SVGID_2_" gradientUnits="userSpaceOnUse" x1="-4218.8306" y1="153.5625" x2="-4178.959" y2="153.5625" gradientTransform="matrix(-1 0 0 1 -4144.3691 0)">
      <stop  offset="0" style="stop-color:#8C6239"/>
      <stop  offset="1" style="stop-color:#FFFF00"/>
    </linearGradient>
    <path fill="url(#SVGID_2_)" d="M34.365,153.581c0,48.814,9.748,88.387,31.641,88.387c0,0,5.17,0.431,9.642-2.986V67.565
      c-3.507-2.993-9.642-2.371-9.642-2.371C44.113,65.194,34.365,104.767,34.365,153.581z"/>
  </g>
  <path fill="#B33C2A" d="M93.418,223.567c0,11-7.509,20-16.687,20s-16.687-9-16.687-20V83.593c0-11,7.509-20,16.687-20
      s16.687,9,16.687,20V223.567z"/>
  <line opacity="0.1" fill="none" stroke="#FFFFFF" stroke-width="6" stroke-linecap="round" stroke-linejoin="round" stroke-miterlimit="10" x1="71.458" y1="84.278" x2="71.458" y2="149.958"/>
  <path fill="none" stroke="#FFD24D" stroke-width="6" stroke-linecap="round" stroke-linejoin="round" stroke-miterlimit="10" d="
    M87.085,101.918c-6.221-6.221-6.221-16.307,0-22.527"/>
  <path fill="none" stroke="#FFD24D" stroke-width="6" stroke-linecap="round" stroke-linejoin="round" stroke-miterlimit="10" d="
    M87.085,101.918c6.22,6.22,6.221,16.306,0,22.526"/>
  <path fill="none" stroke="#FFD24D" stroke-width="6" stroke-linecap="round" stroke-linejoin="round" stroke-miterlimit="10" d="
    M87.085,146.972c-6.221-6.221-6.221-16.307,0-22.527"/>
  <path fill="none" stroke="#FFD24D" stroke-width="6" stroke-linecap="round" stroke-linejoin="round" stroke-miterlimit="10" d="
    M87.085,146.972c6.22,6.22,6.221,16.306,0,22.526"/>
  <path fill="none" stroke="#FFD24D" stroke-width="6" stroke-linecap="round" stroke-linejoin="round" stroke-miterlimit="10" d="
    M87.085,192.025c-6.221-6.221-6.221-16.307,0-22.527"/>
  <path fill="none" stroke="#FFD24D" stroke-width="6" stroke-linecap="round" stroke-linejoin="round" stroke-miterlimit="10" d="
    M87.085,192.025c6.22,6.22,6.221,16.306,0,22.526"/>

  <line opacity="0.5" fill="none" stroke="#B33C2A" stroke-linecap="round" stroke-linejoin="round" stroke-miterlimit="10" x1="81.89" y1="70.213" x2="79.472" y2="66.594"/>
  <line opacity="0.5" fill="none" stroke="#B33C2A" stroke-linecap="round" stroke-linejoin="round" stroke-miterlimit="10" x1="71.574" y1="70.213" x2="73.992" y2="66.594"/>
  <line opacity="0.5" fill="none" stroke="#B33C2A" stroke-linecap="round" stroke-linejoin="round" stroke-miterlimit="10" x1="76.746" y1="67.296" x2="76.746" y2="73.321"/>
  <line opacity="0.5" fill="none" stroke="#B33C2A" stroke-linecap="round" stroke-linejoin="round" stroke-miterlimit="10" x1="71.574" y1="236.533" x2="73.991" y2="240.152"/>
  <line opacity="0.5" fill="none" stroke="#B33C2A" stroke-linecap="round" stroke-linejoin="round" stroke-miterlimit="10" x1="81.889" y1="236.533" x2="79.472" y2="240.152"/>
  <line opacity="0.5" fill="none" stroke="#B33C2A" stroke-linecap="round" stroke-linejoin="round" stroke-miterlimit="10" x1="76.718" y1="239.45" x2="76.718" y2="233.425"/>

  <g id="relish">
    <path fill="#03914B" d="M71.023,227.911c0.184,0.519-0.105,0.848-0.643,0.731l-2.674-0.578
      c-0.538-0.116-1.128-0.635-1.312-1.153l-1.33-3.744c-0.184-0.519,0.105-0.848,0.643-0.731l2.674,0.578
      c0.538,0.116,1.128,0.635,1.312,1.153L71.023,227.911z"/>
    <path fill="#0DA960" d="M71.38,221.459c-0.346,0.428-0.821,0.372-1.057-0.125l-1.172-2.472c-0.235-0.497-0.146-1.254,0.2-1.682
      l1.986-2.46c0.346-0.428,0.821-0.372,1.057,0.125l1.172,2.472c0.236,0.497,0.146,1.254-0.2,1.682L71.38,221.459z"/>
    <path fill="#03914B" d="M68.576,163.979c0.184,0.519-0.105,0.848-0.643,0.731l-2.674-0.578
      c-0.538-0.116-1.128-0.635-1.312-1.153l-1.33-3.744c-0.184-0.519,0.105-0.848,0.643-0.731l2.674,0.578
      c0.538,0.116,1.128,0.635,1.312,1.153L68.576,163.979z"/>
    <path fill="#069B5A" d="M68.933,157.526c-0.346,0.428-0.821,0.372-1.057-0.125l-1.172-2.472c-0.235-0.497-0.146-1.254,0.2-1.682
      l1.986-2.461c0.346-0.428,0.821-0.371,1.057,0.126l1.172,2.472c0.236,0.496,0.146,1.254-0.2,1.682L68.933,157.526z"/>
    <path fill="#03914B" d="M73.514,207.605c-0.526-0.161-0.652-0.623-0.279-1.027l1.854-2.012c0.373-0.404,1.108-0.604,1.634-0.443
      l3.025,0.922c0.526,0.161,0.651,0.623,0.279,1.027l-1.853,2.011c-0.373,0.404-1.108,0.604-1.634,0.444L73.514,207.605z"/>
    <path fill="#0DA960" d="M64.927,140.027c-0.526-0.16-0.652-0.623-0.279-1.027l1.854-2.012c0.373-0.404,1.108-0.604,1.634-0.444
      l3.025,0.923c0.526,0.16,0.651,0.623,0.279,1.027l-1.853,2.011c-0.373,0.404-1.108,0.604-1.634,0.444L64.927,140.027z"/>
    <path fill="#069B5A" d="M55.078,201.981c-0.314-0.451-0.128-0.893,0.415-0.98l2.7-0.438c0.543-0.088,1.245,0.209,1.56,0.66
      l1.809,2.594c0.315,0.451,0.128,0.893-0.415,0.979l-2.699,0.438c-0.543,0.087-1.245-0.21-1.56-0.661L55.078,201.981z"/>
    <path fill="#0DA960" d="M56.088,121.078c-0.021-0.549,0.374-0.819,0.878-0.6l2.509,1.091c0.504,0.219,0.934,0.849,0.955,1.398
      l0.121,3.16c0.021,0.549-0.375,0.819-0.879,0.6l-2.507-1.092c-0.504-0.219-0.934-0.849-0.956-1.398L56.088,121.078z"/>
    <path fill="#0DA960" d="M62.695,175.526c0.015-0.55,0.427-0.792,0.915-0.539l2.417,1.258c0.488,0.253,0.875,0.911,0.859,1.461
      l-0.087,3.17c-0.016,0.55-0.427,0.792-0.915,0.538l-2.416-1.256c-0.488-0.254-0.875-0.912-0.86-1.462L62.695,175.526z"/>
    <path fill="#069B5A" d="M68.286,215.062c-0.467,0.291-1.034,0.118-1.261-0.383l-0.206-0.456
      c-0.227-0.501-0.077-1.212,0.332-1.58l0.756-0.679c0.409-0.368,1.043-0.333,1.409,0.078l0.699,0.784
      c0.366,0.411,0.283,0.984-0.184,1.275L68.286,215.062z"/>
    <path fill="#0DA960" d="M67.019,201.349c-0.46-0.302-0.541-0.889-0.18-1.303l0.338-0.389c0.361-0.414,1.07-0.577,1.576-0.36
      l0.938,0.4c0.506,0.217,0.738,0.806,0.517,1.309l-0.429,0.977c-0.221,0.503-0.778,0.668-1.238,0.366L67.019,201.349z"/>
    <path fill="#0DA960" d="M60.756,150.457c-0.46-0.302-0.541-0.888-0.18-1.303l0.338-0.388c0.361-0.415,1.07-0.578,1.576-0.361
      l0.938,0.401c0.506,0.216,0.738,0.805,0.517,1.309l-0.429,0.975c-0.221,0.504-0.778,0.669-1.238,0.367L60.756,150.457z"/>
    <path fill="#069B5A" d="M66.864,190.125c-0.268-0.48-0.066-1.036,0.447-1.233l0.471-0.181c0.513-0.197,1.217-0.011,1.565,0.416
      l0.645,0.79c0.348,0.427,0.279,1.055-0.151,1.397l-0.822,0.651c-0.431,0.343-1.002,0.229-1.27-0.252L66.864,190.125z"/>
    <path fill="#0DA960" d="M62.857,86.63c-0.184-0.519,0.105-0.847,0.643-0.731l2.674,0.578c0.538,0.116,1.128,0.635,1.312,1.153
      l1.33,3.744c0.184,0.519-0.105,0.847-0.643,0.731L65.5,91.527c-0.538-0.116-1.128-0.635-1.312-1.153L62.857,86.63z"/>
    <path fill="#03914B" d="M62.5,93.082c0.346-0.428,0.821-0.371,1.057,0.125l1.172,2.472c0.236,0.497,0.146,1.253-0.2,1.681
      l-1.986,2.461c-0.346,0.428-0.821,0.371-1.057-0.125l-1.172-2.472c-0.235-0.497-0.146-1.253,0.2-1.681L62.5,93.082z"/>
    <path fill="#03914B" d="M60.367,106.936c0.526,0.16,0.651,0.623,0.279,1.027l-1.854,2.012c-0.373,0.404-1.108,0.604-1.634,0.444
      l-3.025-0.923c-0.526-0.16-0.651-0.623-0.279-1.027l1.853-2.011c0.373-0.404,1.108-0.604,1.634-0.444L60.367,106.936z"/>
    <path fill="#03914B" d="M78.802,112.56c0.314,0.451,0.128,0.892-0.415,0.98l-2.7,0.438c-0.543,0.088-1.245-0.209-1.56-0.66
      l-1.809-2.594c-0.315-0.451-0.128-0.892,0.415-0.98l2.699-0.437c0.543-0.088,1.245,0.209,1.56,0.66L78.802,112.56z"/>
    <path fill="#069B5A" d="M71.191,138.015c-0.019,0.55-0.467,0.877-0.996,0.729l-2.267-0.638c-0.529-0.149-0.95-0.721-0.935-1.271
      l0.087-3.171c0.015-0.55,0.427-0.792,0.915-0.538l2.416,1.257c0.488,0.254,0.872,0.911,0.854,1.461L71.191,138.015z"/>
    <path fill="#0DA960" d="M65.594,99.479c0.467-0.29,1.034-0.118,1.261,0.383l0.206,0.456c0.227,0.501,0.077,1.212-0.332,1.58
      l-0.756,0.68c-0.409,0.368-1.043,0.333-1.409-0.079l-0.699-0.784c-0.366-0.411-0.283-0.985,0.184-1.275L65.594,99.479z"/>
    <path fill="#069B5A" d="M66.861,113.192c0.46,0.302,0.541,0.888,0.18,1.303l-0.338,0.388c-0.361,0.415-1.07,0.578-1.576,0.361
      l-0.938-0.401c-0.506-0.216-0.738-0.805-0.517-1.309l0.429-0.976c0.221-0.503,0.778-0.668,1.238-0.367L66.861,113.192z"/>
    <path fill="#0DA960" d="M67.016,124.416c0.268,0.481,0.066,1.036-0.447,1.233l-0.471,0.181
      c-0.513,0.198-1.217,0.011-1.565-0.416l-0.645-0.791c-0.348-0.426-0.279-1.055,0.151-1.396l0.822-0.652
      c0.431-0.342,1.002-0.229,1.27,0.252L67.016,124.416z"/>
  </g>
  
  <path opacity="0.1" fill="none" stroke="#FFFFFF" stroke-width="4" stroke-linecap="round" stroke-linejoin="round" stroke-miterlimit="10" d="
    M52.52,92.219c-7.099,12.886-9.608,35.053-9.608,60.236c0,19.561,1.116,37.301,5.388,50.286"/>
</g>
<g id="letter-o">
  <path id="cheese" fill="#F4B400" d="M337.15,196.682c0.504,0.979,0.048,2.014-1.015,2.302l-128.78,29.387
    c-1.067,0.266-2.183-0.384-2.479-1.443l-30.005-110.64c-0.306-1.057,0.29-2.227,1.325-2.601l115.002-42.73
    c1.041-0.356,1.94,0.252,2,1.35c0,0,0.758,14.162,12.206,32.011c5.935,9.253,2.637,19.859,5.259,30.013
    C316.319,156.232,337.15,196.682,337.15,196.682z"/>
  <circle id="tomato-1" fill="#CD372D" cx="224.659" cy="129.578" r="45.977"/>
  <circle id="tomato-2" fill="#E04A3F" cx="278.16" cy="186.941" r="45.977"/>
  <circle id="pickle" fill="#0DA960" cx="290.737" cy="116.639" r="34.716"/>
  <g id="bun">
    <path fill="#DC8F37" d="M334.638,152.277c0,14.451-3.985,28.66-11.436,41.021c-3.417,5.67-7.247,9.762-11.826,14.398
      c-4.343,4.395-9.549,6.123-14.141,10.146c-7.683,6.734-13.504,9.801-22.56,14.125c-9.967,4.762-14.015,3.424-24.976,0.193
      c-10.051-2.959-21.18-3.865-31.436-6.283c-10.371-2.445-17.628-11.012-23.614-19.254c-10.243-14.102-18.475-29.979-20.091-47.578
      c-1.328-14.461-1.151-32.234,6.108-45.262c3.839-6.891,10.326-10.33,16.332-15.039c7.233-5.674,13.94-14.455,22.25-18.506
      c10.923-5.324,23.039-8.156,35.194-8.156c16.092,0,33.713,4.625,46.148,15.227c10.613,9.047,22.536,15.381,26.316,29.701
      C330.107,129.123,334.638,139.383,334.638,152.277z"/>
    <linearGradient id="SVGID_3_" gradientUnits="userSpaceOnUse" x1="173.9204" y1="153.5811" x2="334.6382" y2="153.5811">
      <stop  offset="0" style="stop-color:#8C6239"/>
      <stop  offset="1" style="stop-color:#FFFF00"/>
    </linearGradient>
    <path opacity="0.1" fill="url(#SVGID_3_)" d="M334.638,152.277c0,14.451-3.985,28.66-11.436,41.021
      c-3.417,5.67-7.247,9.762-11.826,14.398c-4.343,4.395-9.549,6.123-14.141,10.146c-7.683,6.734-13.504,9.801-22.56,14.125
      c-9.967,4.762-14.015,3.424-24.976,0.193c-10.051-2.959-21.18-3.865-31.436-6.283c-10.371-2.445-17.628-11.012-23.614-19.254
      c-10.243-14.102-18.475-29.979-20.091-47.578c-1.328-14.461-1.151-32.234,6.108-45.262c3.839-6.891,10.326-10.33,16.332-15.039
      c7.233-5.674,13.94-14.455,22.25-18.506c10.923-5.324,23.039-8.156,35.194-8.156c16.092,0,33.713,4.625,46.148,15.227
      c10.613,9.047,22.536,15.381,26.316,29.701C330.107,129.123,334.638,139.383,334.638,152.277z"/>
  </g>
  <g id="seeds">
    <ellipse fill="#FFFFFF" cx="232.033" cy="94.982" rx="0.963" ry="2.889"/>
    <ellipse fill="#FFFFFF" cx="179.645" cy="126.738" rx="0.962" ry="2.889"/>
    <path fill="#FFFFFF" d="M214.238,91.279c-0.74,1.135-1.783,1.773-2.326,1.428s-0.383-1.547,0.357-2.68
      c0.742-1.137,1.783-1.775,2.328-1.43C215.14,88.943,214.979,90.145,214.238,91.279z"/>
    <ellipse transform="matrix(0.8347 0.5507 -0.5507 0.8347 128.0674 -126.7023)" fill="#FFFFFF" cx="275.086" cy="149.976" rx="0.963" ry="2.887"/>
    <ellipse transform="matrix(0.9912 0.1326 -0.1326 0.9912 24.6503 -32.2266)" fill="#FFFFFF" cx="254.237" cy="168.927" rx="0.965" ry="2.884"/>
    <ellipse transform="matrix(0.9912 0.1327 -0.1327 0.9912 25.2781 -32.2985)" fill="#FFFFFF" cx="254.968" cy="173.507" rx="0.964" ry="2.886"/>
    <path fill="#FFFFFF" d="M261.324,156.293c-1.523-0.473-2.631-1.268-2.471-1.777s1.526-0.539,3.049-0.066
      c1.525,0.473,2.632,1.27,2.473,1.779C264.214,156.738,262.849,156.766,261.324,156.293z"/>
    <ellipse transform="matrix(-0.2664 -0.9639 0.9639 -0.2664 232.7407 333.0006)" fill="#FFFFFF" cx="243.098" cy="77.928" rx="0.634" ry="1.902"/>
    <path fill="#FFFFFF" d="M294.921,145.385c1.582,0.201,2.813,0.787,2.751,1.312c-0.063,0.523-1.396,0.789-2.978,0.588
      c-1.582-0.199-2.813-0.787-2.751-1.312C292.007,145.449,293.339,145.186,294.921,145.385z"/>
    <path fill="#FFFFFF" d="M225.268,105.67c1.339,0.168,2.382,0.666,2.329,1.111c-0.053,0.443-1.182,0.668-2.521,0.496
      c-1.34-0.168-2.383-0.666-2.33-1.111C222.799,105.723,223.928,105.5,225.268,105.67z"/>
    <ellipse fill="#FFFFFF" cx="228.345" cy="167.273" rx="0.963" ry="2.887"/>
    <ellipse transform="matrix(0.5215 0.8533 -0.8533 0.5215 250.5525 -103.1906)" fill="#FFFFFF" cx="217.279" cy="171.792" rx="0.963" ry="2.886"/>
    <ellipse transform="matrix(0.5215 0.8533 -0.8533 0.5215 226.8587 -129.9681)" fill="#FFFFFF" cx="229.306" cy="137.278" rx="0.963" ry="2.887"/>
    <path fill="#FFFFFF" d="M235.527,154.775c-1.213,0.385-2.316,0.332-2.463-0.117c-0.148-0.449,0.717-1.125,1.93-1.51
      c1.215-0.385,2.318-0.33,2.465,0.119C237.607,153.717,236.742,154.391,235.527,154.775z"/>
    <path fill="#FFFFFF" d="M247.281,163.602c-0.473,1.15-1.209,1.93-1.648,1.74c-0.438-0.188-0.408-1.273,0.063-2.422
      c0.472-1.152,1.21-1.93,1.647-1.742C247.782,161.367,247.753,162.451,247.281,163.602z"/>
    <ellipse fill="#FFFFFF" cx="261.052" cy="131.14" rx="2.4" ry="0.974"/>
    <path fill="#FFFFFF" d="M251.4,140.838c-0.078,1.262-0.525,2.271-1,2.252c-0.475-0.018-0.797-1.057-0.72-2.318
      c0.077-1.264,0.526-2.273,1.001-2.256C251.156,138.535,251.478,139.574,251.4,140.838z"/>
    <ellipse transform="matrix(0.8641 0.5033 -0.5033 0.8641 91.4471 -112.5635)" fill="#FFFFFF" cx="254.162" cy="113.055" rx="0.962" ry="2.889"/>
    <path fill="#FFFFFF" d="M257.984,104.975c-1.591,0.23-2.939-0.01-3.013-0.537s1.157-1.143,2.747-1.373
      c1.592-0.23,2.939,0.01,3.012,0.537C260.804,104.129,259.574,104.744,257.984,104.975z"/>
    <path fill="#FFFFFF" d="M258.784,88.951c-1.591,0.232-2.938-0.008-3.013-0.535c-0.072-0.527,1.157-1.143,2.748-1.375
      c1.591-0.23,2.939,0.012,3.012,0.539C261.604,88.107,260.375,88.721,258.784,88.951z"/>
    <ellipse transform="matrix(-0.8436 -0.537 0.537 -0.8436 339.3743 352.0805)" fill="#FFFFFF" cx="220.969" cy="126.609" rx="0.964" ry="2.885"/>
    <path fill="#FFFFFF" d="M243.64,121.295c1.314,0.902,2.139,1.986,1.838,2.428c-0.299,0.441-1.607,0.066-2.922-0.834
      c-1.316-0.9-2.139-1.986-1.839-2.428C241.017,120.021,242.326,120.395,243.64,121.295z"/>
    <ellipse transform="matrix(0.5629 -0.8265 0.8265 0.5629 18.7623 282.5919)" fill="#FFFFFF" cx="276.565" cy="123.557" rx="0.848" ry="2.434"/>
    <ellipse fill="#FFFFFF" cx="195.15" cy="135.646" rx="2.889" ry="0.963"/>
    <ellipse transform="matrix(-0.7394 0.6732 -0.6732 -0.7394 422.2664 124.3385)" fill="#FFFFFF" cx="187.071" cy="143.888" rx="0.944" ry="1.864"/>
    <path fill="#FFFFFF" d="M208.898,149.867c-0.027-1.242,0.379-2.258,0.908-2.27c0.529-0.01,0.98,0.988,1.008,2.232
      c0.028,1.24-0.379,2.258-0.907,2.268C209.376,152.107,208.925,151.109,208.898,149.867z"/>
    <ellipse transform="matrix(-0.0091 -1 1 -0.0091 46.1447 362.1981)" fill="#FFFFFF" cx="202.526" cy="158.236" rx="0.963" ry="2.889"/>
    <path fill="#FFFFFF" d="M198.019,118.256c-0.285-1.285-0.174-2.398,0.25-2.488c0.426-0.088,1,0.881,1.283,2.166
      c0.285,1.285,0.172,2.4-0.252,2.49C198.876,120.512,198.302,119.541,198.019,118.256z"/>
    <ellipse transform="matrix(-0.977 0.2131 -0.2131 -0.977 583.3406 233.4275)" fill="#FFFFFF" cx="279.092" cy="148.146" rx="0.963" ry="2.887"/>
    <ellipse transform="matrix(-0.5855 -0.8107 0.8107 -0.5855 238.9524 339.2621)" fill="#FFFFFF" cx="206.215" cy="108.538" rx="0.962" ry="2.889"/>
    <ellipse fill="#FFFFFF" cx="189.011" cy="164.496" rx="0.963" ry="2.889"/>
    <ellipse fill="#FFFFFF" cx="266.575" cy="108.693" rx="0.962" ry="2.889"/>
    <path fill="#FFFFFF" d="M307.182,115.625c-0.74,1.135-1.782,1.775-2.325,1.43s-0.384-1.547,0.357-2.682
      c0.742-1.135,1.783-1.773,2.327-1.428S307.923,114.492,307.182,115.625z"/>
    <ellipse transform="matrix(0.8345 0.5509 -0.5509 0.8345 159.3247 -91.5387)" fill="#FFFFFF" cx="232.064" cy="219.489" rx="0.962" ry="2.887"/>
    <ellipse transform="matrix(0.9912 0.1326 -0.1326 0.9912 13.1975 -35.2247)" fill="#FFFFFF" cx="271.016" cy="81.456" rx="0.965" ry="2.886"/>
    <ellipse transform="matrix(0.9912 0.1327 -0.1327 0.9912 32.3015 -34.9319)" fill="#FFFFFF" cx="278.237" cy="224.886" rx="0.964" ry="2.886"/>
    <path fill="#FFFFFF" d="M284.117,111.215c-1.523-0.473-2.631-1.268-2.471-1.777s1.526-0.539,3.049-0.066
      c1.525,0.473,2.632,1.27,2.473,1.779C287.007,111.66,285.642,111.688,284.117,111.215z"/>
    <ellipse transform="matrix(-0.2657 -0.9641 0.9641 -0.2657 111.0845 379.4973)" fill="#FFFFFF" cx="200.076" cy="147.441" rx="0.634" ry="1.903"/>
    <path fill="#FFFFFF" d="M181.748,145.475c1.582,0.199,2.813,0.787,2.751,1.311c-0.063,0.525-1.396,0.789-2.978,0.588
      c-1.582-0.199-2.813-0.787-2.751-1.311C178.833,145.537,180.167,145.273,181.748,145.475z"/>
    <path fill="#FFFFFF" d="M182.246,175.184c1.34,0.168,2.383,0.666,2.33,1.111c-0.054,0.443-1.183,0.668-2.522,0.496
      c-1.34-0.168-2.383-0.666-2.329-1.111C179.778,175.236,180.906,175.014,182.246,175.184z"/>
    <ellipse fill="#FFFFFF" cx="251.615" cy="218.652" rx="0.963" ry="2.887"/>
    <ellipse transform="matrix(0.5215 0.8533 -0.8533 0.5215 305.5249 -98.4612)" fill="#FFFFFF" cx="240.548" cy="223.169" rx="0.963" ry="2.887"/>
    <ellipse transform="matrix(0.5215 0.8533 -0.8533 0.5215 281.8328 -125.2377)" fill="#FFFFFF" cx="252.576" cy="188.657" rx="0.963" ry="2.886"/>
    <path fill="#FFFFFF" d="M258.796,206.154c-1.213,0.383-2.316,0.332-2.463-0.119c-0.148-0.449,0.717-1.123,1.93-1.508
      c1.215-0.385,2.318-0.332,2.465,0.117C260.876,205.094,260.011,205.77,258.796,206.154z"/>
    <path fill="#FFFFFF" d="M270.55,214.979c-0.473,1.15-1.209,1.93-1.648,1.74c-0.438-0.188-0.408-1.271,0.063-2.422
      s1.21-1.93,1.647-1.74C271.051,212.744,271.023,213.828,270.55,214.979z"/>
    <ellipse fill="#FFFFFF" cx="218.031" cy="200.653" rx="2.401" ry="0.974"/>
    <path fill="#FFFFFF" d="M208.378,210.352c-0.078,1.262-0.525,2.271-1,2.252c-0.476-0.018-0.798-1.057-0.721-2.318
      c0.078-1.264,0.526-2.273,1.001-2.256C208.134,208.049,208.457,209.088,208.378,210.352z"/>
    <ellipse transform="matrix(0.8642 0.5031 -0.5031 0.8642 120.5213 -81.4384)" fill="#FFFFFF" cx="211.14" cy="182.568" rx="0.963" ry="2.888"/>
    <path fill="#FFFFFF" d="M214.961,174.488c-1.591,0.23-2.938-0.01-3.013-0.537c-0.072-0.527,1.157-1.143,2.748-1.373
      s2.939,0.01,3.012,0.537C217.782,173.643,216.552,174.258,214.961,174.488z"/>
    <path fill="#FFFFFF" d="M215.761,158.465c-1.59,0.232-2.938-0.008-3.012-0.535s1.156-1.143,2.747-1.375
      c1.591-0.23,2.939,0.012,3.013,0.539C218.582,157.621,217.352,158.234,215.761,158.465z"/>
    <ellipse transform="matrix(-0.8436 -0.537 0.537 -0.8436 354.6805 459.2971)" fill="#FFFFFF" cx="244.238" cy="177.988" rx="0.964" ry="2.885"/>
    <path fill="#FFFFFF" d="M200.618,190.809c1.315,0.902,2.139,1.986,1.839,2.428s-1.608,0.066-2.923-0.834
      c-1.315-0.9-2.138-1.986-1.839-2.428C197.996,189.535,199.303,189.908,200.618,190.809z"/>
    <ellipse transform="matrix(0.5625 -0.8268 0.8268 0.5625 -57.4565 277.5558)" fill="#FFFFFF" cx="233.543" cy="193.07" rx="0.848" ry="2.435"/>
    <ellipse fill="#FFFFFF" cx="282.081" cy="117.602" rx="2.888" ry="0.963"/>
    <ellipse transform="matrix(-0.7394 0.6732 -0.6732 -0.7394 561.329 34.425)" fill="#FFFFFF" cx="274.002" cy="125.843" rx="0.944" ry="1.865"/>
    <path fill="#FFFFFF" d="M295.829,131.822c-0.026-1.242,0.38-2.258,0.908-2.27c0.528-0.01,0.981,0.988,1.009,2.232
      c0.027,1.24-0.379,2.258-0.908,2.268S295.857,133.064,295.829,131.822z"/>
    <ellipse transform="matrix(-0.0091 -1 1 -0.0091 151.914 430.9164)" fill="#FFFFFF" cx="289.458" cy="140.191" rx="0.963" ry="2.888"/>
    <path fill="#FFFFFF" d="M284.949,100.211c-0.284-1.285-0.172-2.398,0.252-2.488c0.424-0.088,0.998,0.881,1.283,2.166
      s0.172,2.4-0.252,2.49C285.808,102.467,285.234,101.496,284.949,100.211z"/>
    <ellipse transform="matrix(-0.977 0.2131 -0.2131 -0.977 618.7988 139.45)" fill="#FFFFFF" cx="301.885" cy="103.068" rx="0.963" ry="2.887"/>
    <ellipse transform="matrix(-0.5858 -0.8105 0.8105 -0.5858 391.5263 381.0879)" fill="#FFFFFF" cx="293.146" cy="90.493" rx="0.963" ry="2.889"/>
    <ellipse fill="#FFFFFF" cx="304.156" cy="131.76" rx="0.962" ry="2.887"/>
    <path fill="#FFFFFF" d="M286.361,128.055c-0.74,1.135-1.782,1.775-2.325,1.43c-0.544-0.346-0.384-1.547,0.357-2.682
      s1.783-1.773,2.327-1.428C287.263,125.721,287.103,126.922,286.361,128.055z"/>
    <ellipse transform="matrix(-0.2664 -0.9639 0.9639 -0.2664 288.6287 449.0892)" fill="#FFFFFF" cx="315.221" cy="114.703" rx="0.634" ry="1.902"/>
    <path fill="#FFFFFF" d="M297.392,142.447c1.339,0.168,2.382,0.666,2.329,1.109c-0.054,0.445-1.183,0.668-2.522,0.498
      c-1.34-0.168-2.383-0.666-2.329-1.111C294.923,142.5,296.052,142.275,297.392,142.447z"/>
    <ellipse fill="#FFFFFF" cx="333.176" cy="167.915" rx="2.401" ry="0.974"/>
    <ellipse transform="matrix(0.8641 0.5033 -0.5033 0.8641 119.7607 -143.8677)" fill="#FFFFFF" cx="326.286" cy="149.832" rx="0.962" ry="2.889"/>
    <path fill="#FFFFFF" d="M330.107,141.75c-1.59,0.232-2.939-0.008-3.012-0.535c-0.074-0.527,1.156-1.143,2.747-1.373
      c1.591-0.232,2.938,0.01,3.012,0.537S331.697,141.52,330.107,141.75z"/>
    <path fill="#FFFFFF" d="M330.908,125.729c-1.591,0.23-2.939-0.01-3.013-0.537s1.157-1.143,2.747-1.373
      c1.592-0.23,2.939,0.01,3.012,0.537C333.728,124.883,332.498,125.498,330.908,125.729z"/>
    <path fill="#FFFFFF" d="M292.279,162.869c0.861-1.342,1.921-2.197,2.369-1.912c0.45,0.287,0.117,1.605-0.742,2.947
      c-0.861,1.342-1.922,2.197-2.371,1.912C291.085,165.529,291.419,164.211,292.279,162.869z"/>
    <path fill="#FFFFFF" d="M315.763,158.072c1.314,0.9,2.139,1.986,1.839,2.426c-0.3,0.441-1.608,0.066-2.923-0.834
      c-1.315-0.898-2.138-1.986-1.838-2.426C313.14,156.799,314.449,157.172,315.763,158.072z"/>
    <ellipse transform="matrix(0.5627 -0.8267 0.8267 0.5627 -49.0019 321.4227)" fill="#FFFFFF" cx="279.285" cy="207.024" rx="0.847" ry="2.436"/>
    <path fill="#FFFFFF" d="M270.142,155.033c-0.285-1.285-0.173-2.4,0.251-2.488c0.425-0.09,0.999,0.881,1.283,2.164
      c0.285,1.287,0.172,2.4-0.252,2.49S270.426,156.318,270.142,155.033z"/>
    <ellipse transform="matrix(-0.5858 -0.8105 0.8105 -0.5858 323.6146 456.0201)" fill="#FFFFFF" cx="278.339" cy="145.313" rx="0.963" ry="2.888"/>
    <ellipse fill="#FFFFFF" cx="269.294" cy="192.162" rx="0.963" ry="2.887"/>
    <path fill="#FFFFFF" d="M309.902,199.094c-0.74,1.135-1.782,1.773-2.325,1.428c-0.544-0.346-0.384-1.547,0.357-2.68
      c0.741-1.137,1.783-1.775,2.327-1.43C310.804,196.758,310.644,197.959,309.902,199.094z"/>
    <ellipse transform="matrix(0.9912 0.1327 -0.1327 0.9912 24.3053 -34.8647)" fill="#FFFFFF" cx="273.735" cy="164.925" rx="0.964" ry="2.884"/>
    <path fill="#FFFFFF" d="M286.836,194.684c-1.524-0.473-2.63-1.27-2.471-1.779c0.16-0.508,1.526-0.539,3.05-0.064
      c1.525,0.473,2.631,1.27,2.471,1.779C289.727,195.127,288.361,195.156,286.836,194.684z"/>
    <ellipse fill="#FFFFFF" cx="284.8" cy="201.069" rx="2.889" ry="0.962"/>
    <ellipse transform="matrix(-0.7394 0.6732 -0.6732 -0.7394 622.2524 177.7822)" fill="#FFFFFF" cx="276.721" cy="209.312" rx="0.944" ry="1.864"/>
    <path fill="#FFFFFF" d="M298.548,215.289c-0.027-1.24,0.379-2.258,0.908-2.268c0.529-0.012,0.98,0.988,1.008,2.23
      c0.028,1.242-0.379,2.258-0.907,2.27C299.027,217.531,298.576,216.531,298.548,215.289z"/>
    <path fill="#FFFFFF" d="M287.669,183.68c-0.285-1.285-0.174-2.4,0.25-2.488c0.426-0.09,1,0.881,1.283,2.164
      c0.285,1.287,0.172,2.4-0.252,2.49S287.953,184.965,287.669,183.68z"/>
    <ellipse transform="matrix(-0.977 0.2131 -0.2131 -0.977 641.9597 303.8915)" fill="#FFFFFF" cx="304.605" cy="186.537" rx="0.963" ry="2.889"/>
    <ellipse transform="matrix(-0.5855 -0.8107 0.8107 -0.5855 328.051 515.6655)" fill="#FFFFFF" cx="295.866" cy="173.96" rx="0.962" ry="2.887"/>
  </g>
  <path id="bite-1" opacity="0" fill="#F9F9F9" d="M289.436,94.537c-6.693,2.057-11.768-2.188-14.111-8.628c-2.344-6.441-1.423-11.9,5.621-14.699
    c25.201-23.837,75.846,10.128,51.938,50.046c-1.494,4.974-8.055,6.854-14.65,4.201c-6.6-2.654-10.736-8.837-9.242-13.812
    l-0.037,0.042c-3.617,4.117-10.926,3.613-16.312-1.122C287.247,105.828,285.813,98.654,289.436,94.537L289.436,94.537z"/>
  <path id="bite-4" opacity="0" fill="#F9F9F9" d="M280.935,198.459c3.868-9.06,13.034-10.65,22.08-7.323c9.046,3.334,14.073,9.284,10.681,19.388
    c2.714,48.712-79.756,72.256-100.912,10.328c-3.986-6.12-0.047-14.874,8.795-19.553c8.843-4.67,19.243-3.499,23.228,2.619
    l-0.013-0.078c-1.135-7.625,6.043-15.015,16.021-16.498C270.796,185.852,279.802,190.828,280.935,198.459L280.935,198.459z"/>
  <path id="bite-2" opacity="0" fill="#F9F9F9" d="M305.842,187.448c-2.826-7.83,1.924-14.097,9.439-17.25c7.514-3.149,14.049-2.368,17.77,5.838
    c29.744,28.563-7.693,90.639-56.461,64.526c-5.989-1.489-8.598-9.172-5.823-17.16c2.774-7.984,9.882-13.254,15.875-11.762
    l-0.054-0.041c-5.096-4.063-4.914-12.769,0.4-19.436C292.309,185.493,300.747,183.38,305.842,187.448L305.842,187.448z"/>
  <path id="bite-3" opacity="0" fill="#F9F9F9" d="M231.947,209.062c7.785-2.949,14.126,1.701,17.397,9.164
    c3.268,7.463,2.591,14.012-5.557,17.862c-28.088,30.192-90.75-6.261-65.415-55.433c1.396-6.016,9.036-8.741,17.067-6.096
    c8.025,2.647,13.408,9.67,12.012,15.688l0.041-0.055c3.981-5.157,12.688-5.114,19.438,0.093
    C233.688,195.5,235.935,203.902,231.947,209.062L231.947,209.062z"/>
  <path id="bite-5" opacity="0" fill="#F9F9F9" d="M227.618,162.303c9.307,6.559,8.898,17.305,2.951,26.732
    c-5.951,9.418-13.889,13.67-24.497,7.393c-55.726-8.683-62.449-107.602,12.671-116.582c7.883-3.027,16.824,3.536,19.982,14.664
    c3.15,11.121-0.682,22.6-8.566,25.626l0.094,0.006c8.895,0.557,15.518,10.452,14.789,22.089
    C244.315,153.881,236.519,162.867,227.618,162.303L227.618,162.303z"/>
  <path id="bite-6" opacity="0" fill="#F9F9F9" d="M241.652,108.261c-5.188,6.512-13.014,5.751-19.638,1.006
    c-6.621-4.748-9.385-10.724-4.346-18.196c8.729-40.303,81.219-40.963,84.549,14.252c1.871,5.884-3.303,12.129-11.561,13.956
    c-8.254,1.823-16.467-1.466-18.338-7.353l-0.008,0.067c-0.79,6.469-8.296,10.878-16.76,9.848
    C247.081,120.811,240.858,114.734,241.652,108.261L241.652,108.261z"/>
  <path id="bite-7" opacity="0" fill="#F9F9F9" d="M292.224,134.673c-7.157-4.253-7.47-12.11-3.669-19.318c3.802-7.205,9.347-10.755,17.436-6.781
    c41.115,3.164,51.635,74.891-2.613,85.701c-5.576,2.656-12.467-1.621-15.399-9.553c-2.931-7.93-0.788-16.514,4.789-19.168
    l-0.067,0.002c-6.517,0.098-11.904-6.74-12.037-15.264C280.53,141.759,285.704,134.768,292.224,134.673L292.224,134.673z"/>
  <path id="bite-8" opacity="0" fill="#F9F9F9" d="M241.433,151.173c-4.347,7.101-12.208,7.308-19.364,3.412
    c-7.154-3.897-10.631-9.488-6.55-17.523c3.71-41.07,75.569-50.636,85.66,3.751c2.579,5.609-1.788,12.443-9.759,15.271
    c-7.965,2.824-16.521,0.568-19.103-5.043l0.001,0.066c0.012,6.518-6.896,11.815-15.421,11.834
    C248.364,162.961,241.442,157.695,241.433,151.173L241.433,151.173z"/>
  <path id="bite-9" opacity="0" fill="#F9F9F9" d="M297.624,163.415c11.391-4.313,20.668,2.489,25.453,13.407
    c4.781,10.918,3.791,20.498-8.129,26.134c-41.093,44.171-132.768-9.159-95.701-81.098c2.043-8.8,13.219-12.789,24.971-8.917
    c11.742,3.874,19.615,14.147,17.57,22.95l0.062-0.079c5.825-7.546,18.562-7.484,28.437,0.134
    C300.17,143.573,303.458,155.865,297.624,163.415L297.624,163.415z"/>
</g>
</svg>
