<?xml version="1.0" encoding="utf-8"?>
<!-- Generator: Adobe Illustrator 15.1.0, SVG Export Plug-In . SVG Version: 6.00 Build 0)  -->
<!DOCTYPE svg PUBLIC "-//W3C//DTD SVG 1.1//EN" "http://www.w3.org/Graphics/SVG/1.1/DTD/svg11.dtd">
<svg version="1.1" id="rocket-and-moon" xmlns="http://www.w3.org/2000/svg" xmlns:xlink="http://www.w3.org/1999/xlink" x="0px"
	 y="0px" width="367.86px" height="301.16px" viewBox="0 0 367.86 301.16" enable-background="new 0 0 367.86 301.16"
	 xml:space="preserve">
<rect x="145.775" y="31.331" transform="matrix(-0.9542 -0.2993 0.2993 -0.9542 245.9984 345.3975)" fill="#E0E0E0" width="7.342" height="245.064"/>
<path fill="#C2C2C2" d="M306.397,63.79h-2.225V49.485c0-1.189,0.035-2.314,0.109-3.377c-0.191,0.192-0.408,0.394-0.646,0.604
	c-0.238,0.211-1.328,1.103-3.269,2.677l-1.209-1.564l5.313-4.105h1.921v20.07H306.397z"/>
<path fill="#C2C2C2" d="M326.465,48.442c0,1.281-0.359,2.329-1.078,3.144c-0.719,0.814-1.734,1.359-3.053,1.634v0.109
	c1.609,0.202,2.805,0.714,3.582,1.538c0.777,0.823,1.166,1.903,1.166,3.239c0,1.913-0.662,3.384-1.99,4.414
	c-1.326,1.029-3.211,1.544-5.654,1.544c-1.062,0-2.035-0.08-2.918-0.24c-0.883-0.16-1.74-0.441-2.574-0.844v-2.169
	c0.869,0.43,1.797,0.757,2.779,0.981c0.984,0.224,1.916,0.336,2.795,0.336c3.469,0,5.201-1.359,5.201-4.077
	c0-2.435-1.912-3.651-5.736-3.651h-1.979v-1.963h2.006c1.564,0,2.805-0.346,3.721-1.037c0.914-0.69,1.371-1.649,1.371-2.876
	c0-0.979-0.336-1.747-1.008-2.306c-0.674-0.559-1.586-0.838-2.738-0.838c-0.879,0-1.707,0.119-2.486,0.357
	c-0.777,0.238-1.664,0.677-2.662,1.317l-1.152-1.537c0.822-0.649,1.771-1.16,2.85-1.53c1.074-0.371,2.207-0.557,3.396-0.557
	c1.949,0,3.463,0.446,4.543,1.339S326.465,46.887,326.465,48.442z"/>
<g id="letter-o">
	<g id="moon-1">
		
			<linearGradient id="SVGID_1_" gradientUnits="userSpaceOnUse" x1="297.7603" y1="83.6509" x2="206.6704" y2="213.468" gradientTransform="matrix(1 0 0 -1 0 302.1602)">
			<stop  offset="0" style="stop-color:#E0E0E0"/>
			<stop  offset="1" style="stop-color:#FFFFFF"/>
		</linearGradient>
		<path fill="url(#SVGID_1_)" d="M255.268,233.604c-4.768,0-10.051-0.586-15.702-1.742c-21.571-4.42-36.619-10.18-49.694-26.551
			c-12.45-15.59-19.03-33.384-19.03-51.459c0-8.662,2.776-18.617,5.776-28.084c9.662-30.483,41.169-52.608,74.917-52.608
			c9.43,0.001,20.03,2.782,27.264,5.114c10.834,3.497,18.863,7.745,23.863,12.627c1.265,1.234,2.271,2.593,3.246,3.907
			c1.057,1.426,2.148,2.901,3.566,4.198c1.014,0.926,2.113,1.793,3.18,2.63c2.188,1.72,4.451,3.498,6.111,5.922
			c8.658,12.629,10.047,29.763,10.262,44.858c0.008,0.532,0.043,1.099,0.104,1.683c0.176,1.719,0.555,3.519,0.924,5.26
			c0.732,3.472,1.49,7.062,0.766,10.442c-0.568,2.65-1.775,5.421-2.943,8.101c-0.764,1.754-1.555,3.567-2.127,5.272
			c-3.236,9.672-11.053,27.03-27.041,34.607c-2.776,1.315-5.635,2.806-8.66,4.383c-9.186,4.789-18.685,9.739-27.998,11.006
			C259.922,233.458,257.642,233.604,255.268,233.604z"/>
		<path fill="#E0E0E0" d="M251.536,73.659c8.773,0.001,18.803,2.411,27.109,5.09c7.926,2.558,17.609,6.593,23.668,12.509
			c2.607,2.546,4.064,5.59,6.824,8.115c3.098,2.835,6.797,4.936,9.217,8.467c8.607,12.554,9.963,29.773,10.174,44.582
			c0.008,0.57,0.045,1.146,0.105,1.727c0.525,5.138,2.762,10.584,1.697,15.547c-0.934,4.349-3.615,9.021-5.055,13.318
			c-4.645,13.875-13.201,27.879-26.781,34.314c-11.14,5.279-24.207,13.674-36.513,15.346c-2.194,0.299-4.444,0.432-6.715,0.432
			c-5.255,0-10.612-0.713-15.603-1.733c-20.311-4.16-36.061-9.666-49.403-26.373c-11.629-14.562-18.921-32.299-18.921-51.146
			c0-8.92,3.074-19.479,5.753-27.935C186.979,94.731,218.698,73.659,251.536,73.659 M251.536,72.659L251.536,72.659
			c-16.277,0-32.756,5.189-46.396,14.612c-13.907,9.606-24.206,23.224-28.998,38.345c-3.012,9.507-5.8,19.507-5.8,28.235
			c0,18.19,6.618,36.094,19.14,51.771c13.17,16.488,28.302,22.287,49.985,26.729c5.684,1.164,11,1.754,15.802,1.754
			c2.396,0,4.7-0.146,6.851-0.438c9.399-1.276,18.938-6.25,28.161-11.06c3.021-1.574,5.875-3.062,8.644-4.375
			c6.935-3.285,19.703-12.188,27.301-34.899c0.564-1.685,1.316-3.407,2.111-5.231c1.176-2.701,2.395-5.494,2.973-8.193
			c0.748-3.485-0.02-7.129-0.766-10.652c-0.363-1.729-0.74-3.515-0.914-5.206c-0.059-0.571-0.094-1.122-0.1-1.639
			c-0.217-15.17-1.615-32.395-10.35-45.134c-1.705-2.487-3.998-4.29-6.215-6.033c-1.059-0.832-2.154-1.692-3.152-2.606
			c-1.381-1.264-2.41-2.654-3.504-4.126c-0.984-1.33-2.004-2.704-3.297-3.966c-5.057-4.937-13.15-9.225-24.061-12.745
			C271.685,75.454,261.03,72.66,251.536,72.659L251.536,72.659z"/>
		<circle fill="#D6D6D6" cx="299.424" cy="105.638" r="2.619"/>
		<circle fill="#D6D6D6" cx="282.799" cy="171.098" r="2.619"/>
		<circle fill="#D6D6D6" cx="217.34" cy="195.514" r="2.619"/>
		<circle fill="#D6D6D6" cx="202.793" cy="122.653" r="2.62"/>
		<g>
			<defs>
				<path id="SVGID_2_" d="M328.633,154.148c0.525,5.137,2.762,10.584,1.697,15.547c-0.934,4.348-3.615,9.021-5.055,13.318
					c-4.645,13.875-13.201,27.879-26.781,34.313c-11.14,5.278-24.207,13.674-36.513,15.346c-7.272,0.988-15.172,0.16-22.315-1.303
					c-20.312-4.16-36.062-9.666-49.404-26.373c-11.629-14.562-18.921-32.299-18.921-51.146c0-8.92,3.074-19.479,5.753-27.935
					c9.885-31.187,41.604-52.259,74.442-52.259c8.772,0.001,18.803,2.411,27.108,5.09c7.926,2.558,17.608,6.593,23.668,12.509
					c2.606,2.546,4.063,5.59,6.823,8.115c3.1,2.835,6.797,4.936,9.219,8.467c8.605,12.554,9.963,29.773,10.174,44.582
					C328.536,152.992,328.573,153.568,328.633,154.148z"/>
			</defs>
			<clipPath id="SVGID_3_">
				<use xlink:href="#SVGID_2_"  overflow="visible"/>
			</clipPath>
			<path clip-path="url(#SVGID_3_)" fill="#D6D6D6" d="M241.239,236.512c0-6.025,5.699-10.91,12.729-10.91
				c7.031,0,12.728,4.885,12.728,10.91"/>
		</g>
		<path fill="#D6D6D6" d="M275.11,155.914c7.654-8.896-17.613-9.573-9.295-0.477C267.348,157.113,273.561,157.715,275.11,155.914z"
			/>
		<path fill="#D6D6D6" d="M243.272,140.427c-0.984-0.395-1.863-0.946-2.447-1.843c-0.492-0.755-0.764-2.759-1.188-3.745
			c-0.699-1.634-1.516-3.28-2.428-4.806c-4.172-6.994-16.277-0.935-21.576,1.33c-9.986,4.267-15.996-4.699-25.553-2.09
			c-0.304,2.346,1.047,5.649-0.377,7.606c-0.896,1.233-5.554,2.268-7.028,3.013c-3.773,1.908-7.4,4.131-10.764,6.698
			c-0.358,2.487-0.571,4.932-0.571,7.262c0,18.848,7.292,36.586,18.921,51.146c0.977,1.226,1.969,2.381,2.973,3.487
			c1.08,1.191,7.529-6.348,8.094-7.217c1.961-3.024,4.795-6.477,4.428-10.281c-0.198-2.055-3.813-9.182,1.336-9.112
			c2.24,0.028,3.091,3.646,5.859,1.947c4.115-2.523-1.385-8.607,5.787-9.212c1.154-0.096,2,1.144,3.158,0.968
			c2.848-0.438,2.398-1.347,4.568-2.765c2.479-1.621,3.043-3.467,8.041-2.276c4.51,1.073,8.158,7.151,13.518,5.785
			c3.777-0.964,5.186-5.367,5.984-8.736c1.113-4.688-6.318-20.317-6.893-26.049C245.924,141.168,244.514,140.924,243.272,140.427z"
			/>
		<path fill="#D6D6D6" d="M251.536,73.659c-19.522,0-38.652,7.45-53.031,20.046c0.386,0.194,0.814,0.336,1.3,0.397
			c5.532,0.706,10.891-2.15,16.651-1.009c2.621,0.52,6.42,1.071,8.525,2.778c2.936,2.378,1.785,4.339,6.438,4.962
			c7.537,1.011,15.174-5.814,21.521-8.919c4.057-1.985,4.973-0.602,3.584-6.503c-0.537-2.284-2.059-4.642-1.951-7.057
			c0.127-2.835,1.168-1.816,3.002-2.926c0.697-0.422,1.039-0.86,1.123-1.297C256.26,73.836,253.854,73.659,251.536,73.659z"/>
		<path fill="#D6D6D6" d="M213.549,155.924c-1.844-0.207-4.434-2.229-6.148-0.969c-1.852,1.359-0.893,4.287,0.184,5.668
			c3.838,4.924,11.787,0.812,8.617-4.699"/>
		<path fill="#D6D6D6" d="M325.743,161.711c-0.287,1.881,0.225,3.75,0.26,5.629c0.039,2.049-0.477,3.955-0.797,5.963
			c-0.541,3.389-0.121,6.58-0.852,9.918c-0.211,0.967-0.193,1.771-0.008,2.428c0.326-0.879,0.637-1.758,0.93-2.635
			c1.439-4.297,4.121-8.971,5.055-13.318c1.064-4.963-1.172-10.409-1.697-15.547c-0.061-0.58-0.098-1.155-0.104-1.727
			c-0.002-0.107-0.004-0.215-0.006-0.322l-0.635-0.211C328.838,155.848,326.307,158.037,325.743,161.711z"/>
	</g>
	<g id="face-1" opacity="0">
		<path fill="#BBBDBF" stroke="#BBBDBF" stroke-miterlimit="10" d="M204.04,138.428c-0.197,1.63,3.183,0.333,4.688-0.033
			C207.654,137.074,205.206,139.5,204.04,138.428z"/>
		<path fill="#BBBDBF" stroke="#BBBDBF" stroke-miterlimit="10" d="M203.231,142.224c1.109,0.047,3.385-0.247,4.036-1.441
			C206.211,140.41,203.185,140.757,203.231,142.224z"/>
		<path fill="#BBBDBF" stroke="#BBBDBF" stroke-miterlimit="10" d="M203.694,144.147c1.58-0.797,1.247-0.931,2.817-1.304
			C206.377,141.542,202.788,143.206,203.694,144.147z"/>
		<path fill="#BBBDBF" stroke="#BBBDBF" stroke-miterlimit="10" d="M202.775,145.856c0.64,0.587,2.623-0.764,2.817-1.305
			C204.295,144.237,203.319,144.807,202.775,145.856z"/>
		<path fill="#BBBDBF" stroke="#BBBDBF" stroke-miterlimit="10" d="M212.434,153.785c0.788,0.183,2.333,0.027,2.628-0.789
			C214.167,152.29,213.187,153.047,212.434,153.785z"/>
		<path fill="#BBBDBF" stroke="#BBBDBF" stroke-miterlimit="10" d="M221.185,151.441c1.036,1.041,1.39,0.912,1.657,2.654
			c0.979-0.322,0.566-1.156,0.404-1.896c1.564-0.1,1.144,0.604,1.846,2.139c0.584-0.564,0.504-1.375,0.242-2.25
			C223.902,152.007,222.756,151.146,221.185,151.441z"/>
		<path fill="#BBBDBF" stroke="#BBBDBF" stroke-miterlimit="10" d="M232.566,148.311c-0.737,0.606,0.132,1.803-1.624,2.035
			c0.252,1.439,1.792-0.632,1.872,1.271C233.584,150.849,234.02,148.991,232.566,148.311z"/>
		<path fill="#BBBDBF" stroke="#BBBDBF" stroke-miterlimit="10" d="M227.911,153.033c-0.908,0.251,0.938,1.514-0.568,1.546
			c0.519,0.716,1.205,0.967,2.062,0.756C228.1,154.98,229.084,153.34,227.911,153.033z"/>
		<path fill="#BBBDBF" stroke="#BBBDBF" stroke-miterlimit="10" d="M207.045,136.608c-1.223-0.085,1.629,0.271,1.871,1.271
			c0.828-0.829,1.297-1.048,2.465-1.143c-0.164-0.352-0.325-0.704-0.489-1.056c0.972,0.383,1.534-0.418,1.599-1.168
			c1.293-0.12,4.067,0.756,4.199-1.09c4.342-0.149,8.225,0.952,10.957,5.19c0.587-0.272,1.174-0.544,1.762-0.816
			c-0.367-0.229-1.422-0.919-0.138-1.22c-0.431-0.688-1.592,0.621-2.088,0.111c0.2-0.705,0.901-1.228,1.787-1.683
			c0.237-0.447-4.39,1.403-3.255-1.486c-0.33-0.428-1.018,0.116-1.571,0.301c-0.515-0.97,0.587-1.345,0.757-2.062
			c-0.846-0.92-0.753,0.84-1.246,1.004c-0.812,0.148-0.855-1.626-1.383-0.214c-0.393-0.826,0.126-1.318-0.626-2.276
			c-0.396,0.731,0.34,1.878-0.594,2.412c-0.949-0.945-2.763-0.226-4.121-1.512c-0.388,0.248,0,0.779,0.137,1.22
			c-1.306,0.639-1.841-0.825-2.55-1.812c-0.948,1.272,2.177,2.223,0.602,3.143c-0.102-1.059-1.675-0.724-2.552-1.812
			c-0.946,0.721,0.687,0.598,0.652,1.409c-2.892,0.036-1.824,1.68-5.067,1.064c0.732,0.394,1.369,1.047,2.414,0.593
			C210.786,136.631,208.067,136.428,207.045,136.608z"/>
		<path fill="#BBBDBF" stroke="#BBBDBF" stroke-miterlimit="10" d="M217.409,144.211c-1.357-0.762-6.246,2.534-4.354,6.294
			c4.927-2.399,6.809-0.854,10.435-0.556c0.451-3.168-2.74-7.127-5.727-5.901"/>
		<path fill="#BBBDBF" stroke="#BBBDBF" stroke-miterlimit="10" d="M232.208,142.917c-0.314-0.471-1.108,0.364-1.383-0.215
			c-0.771,1.643,1.562,1.534,2.387,1.46C234.247,143.485,230.165,143.946,232.208,142.917z"/>
		<path fill="#BBBDBF" stroke="#BBBDBF" stroke-miterlimit="10" d="M207.368,154.85c1.024-0.699,2.207-1.623,1.219-0.138
			c0.353,0.657,0.988-0.96,2.113-0.979c0.084,0.908-0.822,1.453-1.107,2.225c0.632-0.073,2.242-2.285,2.705-3.391
			c-0.514,0.201-1.023,0.402-0.894,0.842C210.647,152.986,206.997,153.173,207.368,154.85z"/>
		<path fill="#BBBDBF" stroke="#BBBDBF" stroke-miterlimit="10" d="M217.174,152.018c-0.316-0.197-0.633-0.4-0.842-0.894
			c-0.469,0.218-0.938,0.435-1.408,0.651c0.927,0.373,1.818,0.067,1.005,1.246C215.444,154.189,216.486,152.215,217.174,152.018z"/>
		<path fill="#BBBDBF" stroke="#BBBDBF" stroke-miterlimit="10" d="M220.482,151.77c-0.938-0.629-1.953-1.052-3.28-0.619
			c1.074,1.701,2.789,0.309,2.172,2.844C220.336,153.47,219.038,152.116,220.482,151.77z"/>
		<path fill="#BBBDBF" stroke="#BBBDBF" stroke-miterlimit="10" d="M232.807,146.061c0.859-0.752,1.143,0.074,1.923-0.463
			c-3.039-2.402-2.538,4.7,0.575,4.011c0.406,0.539,0.033,0.791-0.379,1.03c0.826,1.269,1.152-1.084,1.71,0.919
			c1.341-0.093-0.259-1.265,1.081-1.355C236.443,147.835,233.631,149.655,232.807,146.061z"/>
		<path fill="#BBBDBF" stroke="#BBBDBF" stroke-miterlimit="10" d="M208.513,139.777c-1.839,2.833-2.048,6.265-3.403,9.274
			c4.385,2.07-2.629,4.012-4.684,5.59c1.592-2.826,3.822-5.417,4.598-8.543c-0.939,0.435-1.878,0.869-2.816,1.305
			c0.164,0.742,0.574,1.574-0.403,1.897c-0.765-0.962,0.653-1.124-0.111-2.087c-0.96,0.228-2.118,0.996-2.603-0.077
			c1.025-0.403,1.767-0.034,2.791-0.438c-0.383-2.381,1.52-3.924,0.887-6.397C204.264,141.266,207.092,138.604,208.513,139.777z
			 M203.231,142.224c1.109,0.047,3.385-0.247,4.036-1.441C206.211,140.41,203.185,140.757,203.231,142.224z M203.694,144.147
			c1.58-0.797,1.247-0.931,2.817-1.304C206.377,141.542,202.788,143.206,203.694,144.147z M202.775,145.856
			c0.64,0.587,2.623-0.764,2.817-1.305C204.295,144.237,203.319,144.807,202.775,145.856z"/>
		<path fill="none" stroke="#BBBDBF" stroke-miterlimit="10" d="M216.049,102.332"/>
		<path fill="none" stroke="#BBBDBF" stroke-miterlimit="10" d="M240.887,148.733"/>
		<path fill="#BBBDBF" d="M238.133,139.031c-2.858-8.97-5.932-17.894-9.911-26.438c-2.202-4.728-4.793-9.722-8.711-13.271
			c-5.173-4.684-9.933-0.538-12.913,4.227c-4.256,6.799-6.641,14.788-9.395,22.265c-1.361,3.699-3.535,13.125-8.062,14.407
			c-0.942,0.267,0.804,9.772,0,10c4.532-1.284,6.692-10.707,8.062-14.407c2.783-7.519,5.229-15.362,9.395-22.265
			c14.085-23.345,29.134,27.944,31.535,35.482C237.176,146.028,239.104,142.078,238.133,139.031L238.133,139.031z"/>
		<path fill="#BBBDBF" stroke="#BBBDBF" stroke-width="3" stroke-miterlimit="10" d="M253.139,183.309
			c10.258-4.254,15.965,6.543,35.096,1.844c-8.888,5.623-9.844,10.271-15.979,13.258c-5.016-1.715-8.551-3.215-19.116-3.215
			l0.222,0.016c-10.566,0-11.256,1.258-19.115,3.215c-6.138-2.988-7.094-7.635-15.979-13.258c19.13,4.7,24.838-6.1,35.096-1.843"/>
		<path fill="#BBBDBF" stroke="#BBBDBF" stroke-miterlimit="10" d="M301.842,138.58c0.197,1.63-3.182,0.333-4.688-0.033
			C298.229,137.227,300.676,139.652,301.842,138.58z"/>
		<path fill="#BBBDBF" stroke="#BBBDBF" stroke-miterlimit="10" d="M302.652,142.376c-1.11,0.047-3.385-0.246-4.036-1.441
			C299.668,140.562,302.697,140.909,302.652,142.376z"/>
		<path fill="#BBBDBF" stroke="#BBBDBF" stroke-miterlimit="10" d="M302.188,144.3c-1.58-0.797-1.247-0.931-2.816-1.304
			C299.502,141.694,303.094,143.358,302.188,144.3z"/>
		<path fill="#BBBDBF" stroke="#BBBDBF" stroke-miterlimit="10" d="M303.108,146.009c-0.641,0.587-2.624-0.764-2.818-1.305
			C301.584,144.39,302.564,144.958,303.108,146.009z"/>
		<path fill="#BBBDBF" stroke="#BBBDBF" stroke-miterlimit="10" d="M293.448,153.938c-0.787,0.185-2.332,0.027-2.628-0.789
			C291.715,152.441,292.695,153.199,293.448,153.938z"/>
		<path fill="#BBBDBF" stroke="#BBBDBF" stroke-miterlimit="10" d="M284.696,151.596c-1.035,1.04-1.389,0.911-1.656,2.653
			c-0.979-0.322-0.567-1.155-0.404-1.897c-1.565-0.099-1.143,0.604-1.846,2.14c-0.582-0.565-0.504-1.375-0.24-2.249
			C281.979,152.159,283.125,151.298,284.696,151.596z"/>
		<path fill="#BBBDBF" stroke="#BBBDBF" stroke-miterlimit="10" d="M273.316,148.463c0.738,0.605-0.133,1.803,1.623,2.035
			c-0.25,1.439-1.79-0.632-1.871,1.271C272.297,151.001,271.861,149.144,273.316,148.463z"/>
		<path fill="#BBBDBF" stroke="#BBBDBF" stroke-miterlimit="10" d="M277.971,153.186c0.908,0.252-0.938,1.515,0.566,1.547
			c-0.518,0.715-1.203,0.967-2.061,0.756C277.782,155.133,276.797,153.492,277.971,153.186z"/>
		<path fill="#BBBDBF" stroke="#BBBDBF" stroke-miterlimit="10" d="M298.836,136.761c1.221-0.086-1.629,0.271-1.871,1.271
			c-0.827-0.829-1.299-1.047-2.465-1.142c0.162-0.352,0.326-0.704,0.488-1.056c-0.973,0.383-1.535-0.418-1.598-1.168
			c-1.293-0.12-4.068,0.756-4.2-1.09c-4.342-0.148-8.226,0.952-10.957,5.189c-0.588-0.271-1.174-0.543-1.761-0.815
			c0.367-0.229,1.421-0.919,0.137-1.22c0.43-0.688,1.592,0.621,2.088,0.111c-0.201-0.705-0.902-1.228-1.787-1.683
			c-0.238-0.447,4.389,1.403,3.254-1.486c0.332-0.428,1.019,0.116,1.572,0.301c0.516-0.97-0.587-1.345-0.757-2.062
			c0.847-0.92,0.752,0.84,1.245,1.004c0.812,0.148,0.855-1.626,1.383-0.214c0.393-0.826-0.126-1.318,0.627-2.276
			c0.396,0.731-0.34,1.878,0.594,2.413c0.949-0.946,2.762-0.227,4.121-1.513c0.387,0.248,0,0.779-0.137,1.22
			c1.307,0.639,1.84-0.825,2.551-1.812c0.946,1.272-2.178,2.223-0.602,3.143c0.102-1.059,1.673-0.724,2.551-1.812
			c0.947,0.721-0.686,0.598-0.652,1.409c2.892,0.036,1.823,1.68,5.067,1.063c-0.731,0.395-1.37,1.048-2.413,0.594
			C295.097,136.783,297.814,136.58,298.836,136.761z"/>
		<path fill="#BBBDBF" stroke="#BBBDBF" stroke-miterlimit="10" d="M288.473,144.363c1.357-0.762,6.247,2.534,4.355,6.294
			c-4.927-2.398-6.81-0.854-10.436-0.556c-0.451-3.168,2.74-7.127,5.727-5.901"/>
		<path fill="#BBBDBF" stroke="#BBBDBF" stroke-miterlimit="10" d="M273.674,143.069c0.314-0.471,1.109,0.364,1.383-0.214
			c0.771,1.642-1.562,1.532-2.387,1.459C271.635,143.638,275.717,144.098,273.674,143.069z"/>
		<path fill="#BBBDBF" stroke="#BBBDBF" stroke-miterlimit="10" d="M298.514,155.002c-1.023-0.7-2.206-1.623-1.219-0.138
			c-0.353,0.657-0.988-0.96-2.113-0.979c-0.083,0.907,0.822,1.451,1.107,2.225c-0.631-0.073-2.242-2.285-2.705-3.392
			c0.514,0.201,1.023,0.403,0.893,0.841C295.236,153.139,298.885,153.324,298.514,155.002z"/>
		<path fill="#BBBDBF" stroke="#BBBDBF" stroke-miterlimit="10" d="M288.708,152.17c0.316-0.197,0.631-0.4,0.842-0.895
			c0.469,0.219,0.938,0.436,1.408,0.652c-0.926,0.373-1.817,0.067-1.006,1.246C290.438,154.342,289.396,152.368,288.708,152.17z"/>
		<path fill="#BBBDBF" stroke="#BBBDBF" stroke-miterlimit="10" d="M285.401,151.921c0.938-0.629,1.952-1.051,3.28-0.618
			c-1.075,1.7-2.791,0.309-2.173,2.844C285.543,153.622,286.844,152.27,285.401,151.921z"/>
		<path fill="#BBBDBF" stroke="#BBBDBF" stroke-miterlimit="10" d="M273.075,146.213c-0.859-0.752-1.142,0.074-1.924-0.463
			c3.041-2.401,2.54,4.7-0.574,4.011c-0.406,0.539-0.033,0.792,0.379,1.03c-0.826,1.27-1.154-1.083-1.709,0.92
			c-1.342-0.093,0.258-1.265-1.082-1.356C269.439,147.988,272.25,149.808,273.075,146.213z"/>
		<path fill="#BBBDBF" stroke="#BBBDBF" stroke-miterlimit="10" d="M303.116,140.453c-0.634,2.473,1.27,4.016,0.887,6.396
			c1.023,0.404,1.766,0.035,2.789,0.438c-0.482,1.073-1.642,0.306-2.602,0.077c-0.766,0.963,0.652,1.125-0.111,2.088
			c-0.979-0.324-0.566-1.156-0.404-1.898c-0.938-0.435-1.877-0.87-2.816-1.305c0.777,3.125,3.006,5.718,4.598,8.544
			c-2.054-1.579-9.065-3.521-4.683-5.59c-1.354-3.011-1.563-6.441-3.403-9.274C298.792,138.757,301.618,141.418,303.116,140.453z
			 M298.616,140.935c0.651,1.195,2.926,1.488,4.036,1.441C302.697,140.909,299.668,140.562,298.616,140.935z M299.372,142.996
			c1.569,0.373,1.236,0.507,2.816,1.304C303.094,143.358,299.502,141.694,299.372,142.996z M300.29,144.704
			c0.194,0.541,2.18,1.892,2.818,1.305C302.564,144.958,301.584,144.39,300.29,144.704z"/>
		<path fill="none" stroke="#BBBDBF" stroke-miterlimit="10" d="M289.833,102.484"/>
		<path fill="none" stroke="#BBBDBF" stroke-miterlimit="10" d="M264.995,148.886"/>
		<path fill="#BBBDBF" d="M267.749,149.185c2.858-8.971,5.932-17.895,9.912-26.438c2.201-4.728,4.793-9.722,8.711-13.271
			c5.172-4.684,9.932-0.539,12.912,4.226c4.256,6.799,6.641,14.788,9.395,22.265c1.361,3.699,3.535,13.125,8.062,14.407
			c-0.805-0.228,0.941-9.733,0-10c-4.533-1.284-6.693-10.707-8.062-14.407c-2.784-7.519-5.229-15.363-9.395-22.265
			c-14.084-23.345-29.134,27.946-31.535,35.483C266.778,142.231,268.706,146.182,267.749,149.185L267.749,149.185z"/>
	</g>
</g>
<g id="letter-i">
	<path fill="none" stroke="#2364D7" stroke-width="3" stroke-linecap="round" stroke-linejoin="round" stroke-miterlimit="10" d="
		M61.445,235.295c0-5.188,5.424-9.393,12.113-9.393s12.624,4.205,12.624,9.393"/>
	
		<path fill="#4387FD" stroke="#2364D7" stroke-width="3" stroke-linecap="round" stroke-linejoin="round" stroke-miterlimit="10" d="
		M98.154,159.352c17.566,0,31.633,32.814,31.633,74.64l-31.391-11.306"/>
	
		<path fill="#4387FD" stroke="#2364D7" stroke-width="3" stroke-linecap="round" stroke-linejoin="round" stroke-miterlimit="10" d="
		M48.878,159.352c-17.564,0-31.633,32.814-31.633,74.64l31.392-11.306"/>
	
		<linearGradient id="SVGID_4_" gradientUnits="userSpaceOnUse" x1="116.3564" y1="86.3994" x2="27.0262" y2="213.709" gradientTransform="matrix(1 0 0 -1 0 302.1602)">
		<stop  offset="0" style="stop-color:#3078F0"/>
		<stop  offset="1" style="stop-color:#4387FD"/>
	</linearGradient>
	
		<path fill="url(#SVGID_4_)" stroke="#2364D7" stroke-width="3" stroke-linecap="round" stroke-linejoin="round" stroke-miterlimit="10" d="
		M73.558,226.83c-11.461,0-22.191,3.391-22.191,3.391s-19.708-88.171-5.58-132.478c14.127-44.307,27.771-38.525,27.771-38.525
		s13.646-5.781,27.772,38.525c14.127,44.307-5.58,132.478-5.58,132.478S85.019,226.83,73.558,226.83z"/>
	<path fill="#2364D7" d="M73.537,77.463c8.197,0,16.626,2.74,22.549,7.31C84.386,56.3,73.537,59.634,73.537,59.634
		S62.688,56.3,50.987,84.771C56.91,80.202,65.338,77.463,73.537,77.463z"/>
	<circle fill="#2364D7" cx="73.737" cy="115.747" r="12.963"/>
	<circle fill="#FFFFFF" cx="73.737" cy="115.747" r="9.098"/>
	<polygon fill="#2364D7" stroke="#2364D7" stroke-linecap="round" stroke-linejoin="round" stroke-miterlimit="10" points="
		72.89,69.58 73.48,16.278 74.07,69.58 	"/>
	<path fill="#2364D7" d="M73.448,216.25c-8.918,0-17.056,1.434-23.263,3.797c1.165,5.66,1.975,9.012,1.975,9.012
		s10.36-3.026,21.426-3.026c11.063,0,21.425,3.026,21.425,3.026s0.8-3.312,1.954-8.916C90.729,217.723,82.488,216.25,73.448,216.25z
		"/>
	
		<circle fill="none" stroke="#2364D7" stroke-linecap="round" stroke-linejoin="round" stroke-miterlimit="10" cx="73.737" cy="115.747" r="15.333"/>
	<path fill="none" stroke="#FFD24D" stroke-width="3" stroke-linecap="round" stroke-linejoin="round" stroke-miterlimit="10" d="
		M72.99,253.26"/>
	
		<path fill="#2364D7" stroke="#2364D7" stroke-width="2" stroke-linecap="round" stroke-linejoin="round" stroke-miterlimit="10" d="
		M62.147,67.167c0-5.674,5.192-10.272,11.598-10.272c6.405,0,11.598,4.599,11.598,10.272"/>
	
		<polyline fill="#FFFFFF" stroke="#2364D7" stroke-width="2" stroke-linecap="round" stroke-linejoin="round" stroke-miterlimit="10" points="
		72.642,163.08 73.642,211.08 71.642,211.08 72.642,163.08 	"/>
	<g id="fire">
		
			<line id="fire-1" fill="none" stroke="#F4B400" stroke-width="3" stroke-linecap="round" stroke-linejoin="round" stroke-miterlimit="10" x1="72.93" y1="231.08" x2="72.93" y2="266.08"/>
		
			<line id="fire-2" fill="none" stroke="#FFD24D" stroke-linecap="round" stroke-linejoin="round" stroke-miterlimit="10" x1="83.917" y1="238.533" x2="90.146" y2="269.332"/>
		
			<line id="fire-3" fill="none" stroke="#FFD24D" stroke-width="2" stroke-linecap="round" stroke-linejoin="round" stroke-miterlimit="10" x1="79.333" y1="234.25" x2="80.426" y2="261.434"/>
		
			<line id="fire-4" fill="none" stroke="#FFD24D" stroke-linecap="round" stroke-linejoin="round" stroke-miterlimit="10" x1="88.596" y1="240.506" x2="91.472" y2="251.533"/>
		
			<line id="fire-5" fill="none" stroke="#F4B400" stroke-linecap="round" stroke-linejoin="round" stroke-miterlimit="10" x1="63.561" y1="238.533" x2="56.429" y2="272.332"/>
		
			<line id="fire-6" fill="none" stroke="#FFD24D" stroke-width="2" stroke-linecap="round" stroke-linejoin="round" stroke-miterlimit="10" x1="68.146" y1="234.25" x2="67.054" y2="261.434"/>
		
			<line id="fire-7" fill="none" stroke="#FFD24D" stroke-linecap="round" stroke-linejoin="round" stroke-miterlimit="10" x1="58.883" y1="240.506" x2="56.005" y2="252.533"/>
		
			<line id="fire-8" fill="none" stroke="#FFD24D" stroke-linecap="round" stroke-linejoin="round" stroke-miterlimit="10" x1="69.544" y1="262.434" x2="69.005" y2="271.355"/>
		
			<line id="fire-9" fill="none" stroke="#FFD24D" stroke-linecap="round" stroke-linejoin="round" stroke-miterlimit="10" x1="64.249" y1="249.65" x2="62.228" y2="273.877"/>
		
			<line id="fire-10" fill="none" stroke="#FFD24D" stroke-linecap="round" stroke-linejoin="round" stroke-miterlimit="10" x1="76.807" y1="261.434" x2="77.346" y2="268.355"/>
		
			<line id="fire-11" fill="none" stroke="#F4B400" stroke-linecap="round" stroke-linejoin="round" stroke-miterlimit="10" x1="83.005" y1="249.65" x2="85.027" y2="273.877"/>
		
			<line id="fire-12" fill="none" stroke="#FFD24D" stroke-linecap="round" stroke-linejoin="round" stroke-miterlimit="10" x1="72.93" y1="271.08" x2="72.93" y2="278.08"/>
	</g>
	<path opacity="0.3" fill="#4387FD" enable-background="new    " d="M81.398,116.438c-4.713,2.656-10.388,2.969-15.322,0.918
		c0.302,1.416,0.998,2.766,2.099,3.867c3.032,3.031,7.95,3.031,10.983,0C80.494,119.888,81.24,118.185,81.398,116.438z"/>
</g>
<path id="center" fill="#D6D6D6" d="M254.122,154.146"/>
<path id="rocket-center" fill="#D6D6D6" d="M73.48,154.146"/>
</svg>
