<?xml version="1.0" encoding="utf-8"?>
<!-- Generator: Adobe Illustrator 16.0.0, SVG Export Plug-In . SVG Version: 6.00 Build 0)  -->
<!DOCTYPE svg PUBLIC "-//W3C//DTD SVG 1.1//EN" "http://www.w3.org/Graphics/SVG/1.1/DTD/svg11.dtd">
<svg version="1.1" id="sandwich-and-donut" xmlns="http://www.w3.org/2000/svg" xmlns:xlink="http://www.w3.org/1999/xlink" x="0px"
	 y="0px" width="367.86px" height="301.16px" viewBox="0 0 367.86 301.16" enable-background="new 0 0 367.86 301.16"
	 xml:space="preserve">
	<rect id="slash" x="146.165" y="30.472" transform="matrix(0.9542 0.2992 -0.2992 0.9542 52.6458 -37.8244)" fill="#E0E0E0" width="7.343" height="245.055"/>
  <path id="num-1" fill="#C2C2C2" d="M306.396,63.79h-2.224V49.485c0-1.189,0.036-2.314,0.109-3.377
    c-0.191,0.192-0.407,0.394-0.645,0.604c-0.238,0.211-1.328,1.103-3.268,2.677l-1.209-1.564l5.313-4.105h1.922V63.79z"/>
  <path id="num-3" fill="#C2C2C2" d="M326.465,48.442c0,1.281-0.359,2.329-1.077,3.144c-0.719,0.814-1.736,1.359-3.054,1.634v0.109
    c1.609,0.202,2.805,0.714,3.582,1.538c0.777,0.823,1.167,1.903,1.167,3.239c0,1.913-0.663,3.384-1.99,4.414
    c-1.327,1.029-3.212,1.544-5.656,1.544c-1.062,0-2.034-0.08-2.917-0.24s-1.741-0.441-2.574-0.844v-2.169
    c0.869,0.43,1.797,0.757,2.78,0.981c0.983,0.224,1.915,0.336,2.794,0.336c3.468,0,5.202-1.359,5.202-4.077
    c0-2.435-1.913-3.651-5.737-3.651h-1.978v-1.963h2.005c1.564,0,2.805-0.346,3.72-1.037c0.915-0.69,1.372-1.649,1.372-2.876
    c0-0.979-0.336-1.747-1.008-2.306c-0.674-0.559-1.586-0.838-2.739-0.838c-0.878,0-1.707,0.119-2.485,0.357
    c-0.777,0.238-1.665,0.677-2.662,1.317l-1.153-1.537c0.823-0.649,1.772-1.16,2.849-1.53c1.075-0.371,2.207-0.557,3.397-0.557
    c1.949,0,3.464,0.446,4.544,1.339S326.465,46.887,326.465,48.442z"/>
  <g id="letter-o">
    <path id="donut-bottom" fill="#C9AA5E" stroke="#C69C6D" stroke-miterlimit="10" d="M332.926,152.368
      c0,14.452-3.986,28.66-11.436,41.021c-2.793,4.635-5.77,9.501-10.103,12.856c-4.539,3.514-10.237,5.188-15.072,8.25
      c-7.38,4.675-12.802,14.617-21.491,17.006c-7.377,2.027-17.529,3.771-24.775,0.517c-5.798-2.604-9.39-3.287-15.566-2.481
      c-5.518,0.72-12.473-2.281-17.93-3.567c-10.371-2.445-17.629-11.011-23.615-19.253c-10.242-14.103-18.475-29.979-20.09-47.579
      c-0.783-8.523-3.329-20.068,0.973-27.887c3.553-6.456,8.676-11.66,12-18.403c3.006-6.099,6.57-10.441,11.604-15.063
      c6.373-5.852,12.188-13.589,20.113-17.452c10.924-5.325,23.039-8.157,35.194-8.157c16.093,0,33.714,4.626,46.148,15.227
      c10.613,9.048,22.536,15.382,26.317,29.702C328.395,129.214,332.926,139.475,332.926,152.368z"/>
    <g id="donut-top">
      <linearGradient id="SVGID_1_" gradientUnits="userSpaceOnUse" x1="304.606" y1="213.9131" x2="206.7964" y2="90.046">
        <stop  offset="0.4636" style="stop-color:#42210B"/>
        <stop  offset="1" style="stop-color:#603813"/>
      </linearGradient>
      <path fill="url(#SVGID_1_)" d="M327.442,152.334c-1.262,8.8,1.789,17.133,1.209,25.89c-0.713,10.775-12.252,16.082-16.378,25.848
        c-4.544,10.753-16.202,16.143-26.313,21.13c-5.695,2.809-12.816-0.133-19.241,2.533c-6.229,2.585-12.657,4.413-19.476,3.564
        c-8.129-1.012-19.621-5.784-27.195-9.051c-11.607-5.006-23.037-11.208-30.623-21.581c-5.979-8.176-4.541-17.57-14.051-21.793
        c-9.63-4.276-1.123-18.896,2.041-23.92c4.43-7.035,3.071-21.037,2.631-29.085c-0.676-12.317,2.27-18.833,12.395-25.822
        c8.521-5.882,14.488-14.313,23.647-19.63c8.144-4.727,20.597-1.693,30.072-4.339c8.616-2.405,19.901,1.404,28.214,3.59
        c8.369,2.2,18.047,9.142,26.201,9.067c10.892-0.1,21.32,10.233,22.012,21.619C323.487,125.201,329.631,137.084,327.442,152.334
        C327.293,153.373,327.951,148.79,327.442,152.334z"/>
      <defs>
        <path id="SVGID_2_" d="M327.442,152.334c-1.262,8.8,1.789,17.133,1.209,25.89c-0.713,10.775-12.252,16.082-16.378,25.848
          c-4.544,10.753-16.202,16.143-26.313,21.13c-5.695,2.809-12.816-0.133-19.241,2.533c-6.229,2.585-12.657,4.413-19.476,3.564
          c-8.129-1.012-19.621-5.784-27.195-9.051c-11.607-5.006-23.037-11.208-30.623-21.581c-5.979-8.176-4.541-17.57-14.051-21.793
          c-9.63-4.276-1.123-18.896,2.041-23.92c4.43-7.035,3.071-21.037,2.631-29.085c-0.676-12.317,2.27-18.833,12.395-25.822
          c8.521-5.882,14.488-14.313,23.647-19.63c8.144-4.727,20.597-1.693,30.072-4.339c8.616-2.405,19.901,1.404,28.214,3.59
          c8.369,2.2,18.047,9.142,26.201,9.067c10.892-0.1,21.32,10.233,22.012,21.619C323.487,125.201,329.631,137.084,327.442,152.334
          C327.293,153.373,327.951,148.79,327.442,152.334z"/>
      </defs>
      <clipPath id="SVGID_3_">
        <use xlink:href="#SVGID_2_"  overflow="visible"/>
      </clipPath>
      <g id="sprinkles" clip-path="url(#SVGID_3_)">
        <line fill="none" stroke="#3777E3" stroke-width="2" stroke-linecap="round" stroke-linejoin="round" stroke-miterlimit="10" x1="236.708" y1="186.889" x2="233.125" y2="180.874"/>
        <line fill="none" stroke="#3777E3" stroke-width="2" stroke-linecap="round" stroke-linejoin="round" stroke-miterlimit="10" x1="302.368" y1="143.572" x2="308.735" y2="140.967"/>
        <line fill="none" stroke="#3777E3" stroke-width="2" stroke-linecap="round" stroke-linejoin="round" stroke-miterlimit="10" x1="235.436" y1="84.104" x2="233.327" y2="89.204"/>
        <line fill="none" stroke="#3777E3" stroke-width="2" stroke-linecap="round" stroke-linejoin="round" stroke-miterlimit="10" x1="254.82" y1="90.11" x2="259.591" y2="93.941"/>
        <line fill="none" stroke="#E04A3F" stroke-width="2" stroke-linecap="round" stroke-linejoin="round" stroke-miterlimit="10" x1="187.53" y1="100.95" x2="195.556" y2="102.641"/>
        <line fill="none" stroke="#E04A3F" stroke-width="2" stroke-linecap="round" stroke-linejoin="round" stroke-miterlimit="10" x1="223.806" y1="85.698" x2="218.933" y2="90.175"/>
        <line fill="none" stroke="#E04A3F" stroke-width="2" stroke-linecap="round" stroke-linejoin="round" stroke-miterlimit="10" x1="254.82" y1="137.732" x2="257.679" y2="126.685"/>
        <line fill="none" stroke="#E04A3F" stroke-width="2" stroke-linecap="round" stroke-linejoin="round" stroke-miterlimit="10" x1="226.093" y1="103.504" x2="225.999" y2="97.574"/>
        <line fill="none" stroke="#FFD24D" stroke-width="2" stroke-linecap="round" stroke-linejoin="round" stroke-miterlimit="10" x1="290.418" y1="155.123" x2="296.329" y2="158.544"/>
        <line fill="none" stroke="#FFD24D" stroke-width="2" stroke-linecap="round" stroke-linejoin="round" stroke-miterlimit="10" x1="180.528" y1="153.538" x2="178.213" y2="161.409"/>
        <line fill="none" stroke="#FFD24D" stroke-width="2" stroke-linecap="round" stroke-linejoin="round" stroke-miterlimit="10" x1="193.1" y1="161.515" x2="187.981" y2="162.69"/>
        <line fill="none" stroke="#FFD24D" stroke-width="2" stroke-linecap="round" stroke-linejoin="round" stroke-miterlimit="10" x1="246.03" y1="206.799" x2="246.397" y2="201.944"/>
        <line fill="none" stroke="#0DA960" stroke-width="2" stroke-linecap="round" stroke-linejoin="round" stroke-miterlimit="10" x1="222.295" y1="117.737" x2="218.801" y2="124.159"/>
        <line fill="none" stroke="#0DA960" stroke-width="2" stroke-linecap="round" stroke-linejoin="round" stroke-miterlimit="10" x1="197.155" y1="110.077" x2="191.261" y2="112.308"/>
        <line fill="none" stroke="#0DA960" stroke-width="2" stroke-linecap="round" stroke-linejoin="round" stroke-miterlimit="10" x1="233.381" y1="147.249" x2="228.346" y2="151.261"/>
        <line fill="none" stroke="#0DA960" stroke-width="2" stroke-linecap="round" stroke-linejoin="round" stroke-miterlimit="10" x1="255.783" y1="179.252" x2="253.831" y2="184.68"/>
        <line fill="none" stroke="#3777E3" stroke-width="2" stroke-linecap="round" stroke-linejoin="round" stroke-miterlimit="10" x1="318.25" y1="168.89" x2="323.575" y2="174.11"/>
        <line fill="none" stroke="#3777E3" stroke-width="2" stroke-linecap="round" stroke-linejoin="round" stroke-miterlimit="10" x1="319.756" y1="144.667" x2="317.236" y2="151.472"/>
        <line fill="none" stroke="#3777E3" stroke-width="2" stroke-linecap="round" stroke-linejoin="round" stroke-miterlimit="10" x1="300.321" y1="219.419" x2="292.159" y2="218.606"/>
        <line fill="none" stroke="#3777E3" stroke-width="2" stroke-linecap="round" stroke-linejoin="round" stroke-miterlimit="10" x1="300.202" y1="177.783" x2="298.272" y2="184.447"/>
        <line fill="none" stroke="#E04A3F" stroke-width="2" stroke-linecap="round" stroke-linejoin="round" stroke-miterlimit="10" x1="210.012" y1="169.38" x2="211.786" y2="177.389"/>
        <line fill="none" stroke="#E04A3F" stroke-width="2" stroke-linecap="round" stroke-linejoin="round" stroke-miterlimit="10" x1="274.519" y1="221.731" x2="268.604" y2="218.319"/>
        <line fill="none" stroke="#E04A3F" stroke-width="2" stroke-linecap="round" stroke-linejoin="round" stroke-miterlimit="10" x1="296.356" y1="209.251" x2="301.454" y2="202.824"/>
        <line fill="none" stroke="#E04A3F" stroke-width="2" stroke-linecap="round" stroke-linejoin="round" stroke-miterlimit="10" x1="284.889" y1="200.719" x2="290.246" y2="196.537"/>
        <line fill="none" stroke="#FFD24D" stroke-width="2" stroke-linecap="round" stroke-linejoin="round" stroke-miterlimit="10" x1="281.47" y1="75.581" x2="282.053" y2="84.484"/>
        <line fill="none" stroke="#FFD24D" stroke-width="2" stroke-linecap="round" stroke-linejoin="round" stroke-miterlimit="10" x1="215.94" y1="212.185" x2="207.817" y2="213.327"/>
        <line fill="none" stroke="#FFD24D" stroke-width="2" stroke-linecap="round" stroke-linejoin="round" stroke-miterlimit="10" x1="219.674" y1="198.352" x2="216.25" y2="193.442"/>
        <line fill="none" stroke="#FFD24D" stroke-width="2" stroke-linecap="round" stroke-linejoin="round" stroke-miterlimit="10" x1="290.438" y1="118.543" x2="296.026" y2="122.431"/>
        <line fill="none" stroke="#FFD24D" stroke-width="2" stroke-linecap="round" stroke-linejoin="round" stroke-miterlimit="10" x1="272.303" y1="176.193" x2="261.69" y2="166.896"/>
        <line fill="none" stroke="#FFD24D" stroke-width="2" stroke-linecap="round" stroke-linejoin="round" stroke-miterlimit="10" x1="265.39" y1="152.12" x2="280.834" y2="142.374"/>
        <line fill="none" stroke="#FFD24D" stroke-width="2" stroke-linecap="round" stroke-linejoin="round" stroke-miterlimit="10" x1="243.287" y1="102.872" x2="251.286" y2="101.05"/>
        <line fill="none" stroke="#FFD24D" stroke-width="2" stroke-linecap="round" stroke-linejoin="round" stroke-miterlimit="10" x1="192.31" y1="194.209" x2="201.442" y2="191.122"/>
        <line fill="none" stroke="#0DA960" stroke-width="2" stroke-linecap="round" stroke-linejoin="round" stroke-miterlimit="10" x1="200.822" y1="198.212" x2="194.621" y2="199.095"/>
        <line fill="none" stroke="#0DA960" stroke-width="2" stroke-linecap="round" stroke-linejoin="round" stroke-miterlimit="10" x1="250.032" y1="231.403" x2="244.741" y2="226.134"/>
        <line fill="none" stroke="#0DA960" stroke-width="2" stroke-linecap="round" stroke-linejoin="round" stroke-miterlimit="10" x1="234.708" y1="218.161" x2="229.405" y2="216.427"/>
        <line fill="none" stroke="#0DA960" stroke-width="2" stroke-linecap="round" stroke-linejoin="round" stroke-miterlimit="10" x1="238.889" y1="130.852" x2="229.638" y2="127.739"/>
        <line fill="none" stroke="#3777E3" stroke-width="2" stroke-linecap="round" stroke-linejoin="round" stroke-miterlimit="10" x1="212.985" y1="129.46" x2="218.819" y2="133.001"/>
        <line fill="none" stroke="#3777E3" stroke-width="2" stroke-linecap="round" stroke-linejoin="round" stroke-miterlimit="10" x1="322.452" y1="184.026" x2="319.368" y2="188.46"/>
        <line fill="none" stroke="#E04A3F" stroke-width="2" stroke-linecap="round" stroke-linejoin="round" stroke-miterlimit="10" x1="316.559" y1="99.335" x2="311.59" y2="98.28"/>
        <line fill="none" stroke="#E04A3F" stroke-width="2" stroke-linecap="round" stroke-linejoin="round" stroke-miterlimit="10" x1="294.439" y1="96.184" x2="297.907" y2="90.481"/>
        <line fill="none" stroke="#E04A3F" stroke-width="2" stroke-linecap="round" stroke-linejoin="round" stroke-miterlimit="10" x1="268.129" y1="116.598" x2="272.665" y2="121.556"/>
        <line fill="none" stroke="#FFFFFF" stroke-width="2" stroke-linecap="round" stroke-linejoin="round" stroke-miterlimit="10" x1="272.129" y1="105.598" x2="277.665" y2="108.556"/>
        <line fill="none" stroke="#FFFFFF" stroke-width="2" stroke-linecap="round" stroke-linejoin="round" stroke-miterlimit="10" x1="259.129" y1="82.598" x2="263.665" y2="83.556"/>
        <line fill="none" stroke="#FFFFFF" stroke-width="2" stroke-linecap="round" stroke-linejoin="round" stroke-miterlimit="10" x1="215.873" y1="114.082" x2="212.917" y2="109.097"/>
        <line fill="none" stroke="#FFFFFF" stroke-width="2" stroke-linecap="round" stroke-linejoin="round" stroke-miterlimit="10" x1="192.704" y1="131.664" x2="197.086" y2="128.515"/>
        <line fill="none" stroke="#FFFFFF" stroke-width="2" stroke-linecap="round" stroke-linejoin="round" stroke-miterlimit="10" x1="182.704" y1="187.664" x2="187.086" y2="184.515"/>
        <line fill="none" stroke="#FFFFFF" stroke-width="2" stroke-linecap="round" stroke-linejoin="round" stroke-miterlimit="10" x1="212.493" y1="158.849" x2="206.295" y2="161.332"/>
        <line fill="none" stroke="#FFFFFF" stroke-width="2" stroke-linecap="round" stroke-linejoin="round" stroke-miterlimit="10" x1="279.276" y1="180.946" x2="281.512" y2="185.235"/>
        <line fill="none" stroke="#FFFFFF" stroke-width="2" stroke-linecap="round" stroke-linejoin="round" stroke-miterlimit="10" x1="279.503" y1="214.279" x2="285.709" y2="217.021"/>
        <line fill="none" stroke="#FFFFFF" stroke-width="2" stroke-linecap="round" stroke-linejoin="round" stroke-miterlimit="10" x1="261.945" y1="208.49" x2="256.739" y2="211.111"/>
        <line fill="none" stroke="#E04A3F" stroke-width="2" stroke-linecap="round" stroke-linejoin="round" stroke-miterlimit="10" x1="292.083" y1="134.442" x2="296.401" y2="139.687"/>
        <line fill="none" stroke="#3777E3" stroke-width="2" stroke-linecap="round" stroke-linejoin="round" stroke-miterlimit="10" x1="300.264" y1="97.011" x2="302.368" y2="95.184"/>
        <line fill="none" stroke="#0DA960" stroke-width="2" stroke-linecap="round" stroke-linejoin="round" stroke-miterlimit="10" x1="307.8" y1="115.904" x2="310.877" y2="111.364"/>
        <line fill="none" stroke="#0DA960" stroke-width="2" stroke-linecap="round" stroke-linejoin="round" stroke-miterlimit="10" x1="186.106" y1="145.114" x2="189.682" y2="139.732"/>
        <line fill="none" stroke="#0DA960" stroke-width="2" stroke-linecap="round" stroke-linejoin="round" stroke-miterlimit="10" x1="277.983" y1="90.132" x2="277.147" y2="83.972"/>
      </g>
    </g>
    <path id="donut-hole" fill="#F9F9F9" d="M234.708,174.451c-14.034-3.705-11.282-27.733-5.227-36.387
      c12.027-17.183,29.295-12.528,43.039-1.669c4.173,3.292,5.919,6.644,6.724,12.023c1.455,9.749-3.59,13.788-5.588,21.781
      c-1.323,5.29-16.415,9.847-21.122,10.57C245.227,181.894,240.888,176.089,234.708,174.451
      C233.749,174.198,235.75,174.728,234.708,174.451z"/>
  </g>
  <g id="letter-i">
    <g id="sandwich-bar">
      <g id="bar">
        <linearGradient id="SVGID_4_" gradientUnits="userSpaceOnUse" x1="73.9048" y1="77.167" x2="73.9048" y2="228.8335">
          <stop  offset="0" style="stop-color:#603813"/>
          <stop  offset="1" style="stop-color:#42210B"/>
        </linearGradient>
        <path fill="url(#SVGID_4_)" d="M109.926,218.833c0,5.5-4.5,10-10,10H47.884c-5.5,0-10-4.5-10-10V87.167c0-5.5,4.5-10,10-10
          h52.042c5.5,0,10,4.5,10,10V218.833z"/>
        <path fill="none" stroke="#534741" stroke-miterlimit="10" d="M109.926,218.833c0,5.5-4.5,10-10,10H47.884c-5.5,0-10-4.5-10-10
          V87.167c0-5.5,4.5-10,10-10h52.042c5.5,0,10,4.5,10,10V218.833z"/>
      </g>
      <circle fill="#603813" cx="50.284" cy="91.432" r="2.69"/>
      <circle fill="#603813" cx="49.517" cy="90.696" r="2.69"/>
      <circle fill="#603813" cx="74.289" cy="91.432" r="2.69"/>
      <circle fill="#603813" cx="73.521" cy="90.696" r="2.69"/>
      <circle fill="#603813" cx="98.293" cy="91.432" r="2.69"/>
      <circle fill="#603813" cx="97.525" cy="90.696" r="2.69"/>
      <circle fill="#603813" cx="62.286" cy="105.195" r="2.69"/>
      <circle fill="#603813" cx="61.519" cy="104.46" r="2.69"/>
      <circle fill="#603813" cx="86.291" cy="105.195" r="2.69"/>
      <circle fill="#603813" cx="85.522" cy="104.46" r="2.69"/>
      <circle fill="#603813" cx="50.284" cy="118.959" r="2.69"/>
      <circle fill="#603813" cx="49.517" cy="118.224" r="2.69"/>
      <circle fill="#603813" cx="74.289" cy="118.959" r="2.69"/>
      <circle fill="#603813" cx="73.521" cy="118.224" r="2.69"/>
      <circle fill="#603813" cx="98.293" cy="118.959" r="2.69"/>
      <circle fill="#603813" cx="97.525" cy="118.224" r="2.69"/>
      <circle fill="#603813" cx="62.286" cy="132.723" r="2.69"/>
      <circle fill="#603813" cx="61.519" cy="131.987" r="2.69"/>
      <circle fill="#603813" cx="86.291" cy="132.723" r="2.69"/>
      <circle fill="#603813" cx="85.522" cy="131.987" r="2.69"/>
      <circle fill="#603813" cx="50.284" cy="146.486" r="2.69"/>
      <circle fill="#603813" cx="49.517" cy="145.75" r="2.69"/>
      <circle fill="#603813" cx="74.289" cy="146.486" r="2.69"/>
      <circle fill="#603813" cx="73.521" cy="145.75" r="2.69"/>
      <circle fill="#603813" cx="98.293" cy="146.486" r="2.69"/>
      <circle fill="#603813" cx="97.525" cy="145.75" r="2.69"/>
      <circle fill="#603813" cx="62.286" cy="160.25" r="2.69"/>
      <circle fill="#603813" cx="61.519" cy="159.514" r="2.69"/>
      <circle fill="#603813" cx="86.291" cy="160.25" r="2.69"/>
      <circle fill="#603813" cx="85.522" cy="159.514" r="2.69"/>
      <circle fill="#603813" cx="50.284" cy="174.013" r="2.69"/>
      <circle fill="#603813" cx="49.517" cy="173.277" r="2.69"/>
      <circle fill="#603813" cx="74.289" cy="174.013" r="2.69"/>
      <circle fill="#603813" cx="73.521" cy="173.277" r="2.69"/>
      <circle fill="#603813" cx="98.293" cy="174.013" r="2.69"/>
      <circle fill="#603813" cx="97.525" cy="173.277" r="2.69"/>
      <circle fill="#603813" cx="62.286" cy="187.776" r="2.69"/>
      <circle fill="#603813" cx="61.519" cy="187.041" r="2.69"/>
      <circle fill="#603813" cx="86.291" cy="187.776" r="2.69"/>
      <circle fill="#603813" cx="85.522" cy="187.041" r="2.69"/>
      <circle fill="#603813" cx="50.284" cy="201.54" r="2.69"/>
      <circle fill="#603813" cx="49.517" cy="200.805" r="2.69"/>
      <circle fill="#603813" cx="74.289" cy="201.54" r="2.69"/>
      <circle fill="#603813" cx="73.521" cy="200.805" r="2.69"/>
      <circle fill="#603813" cx="98.293" cy="201.54" r="2.69"/>
      <circle fill="#603813" cx="97.525" cy="200.805" r="2.69"/>
      <circle fill="#603813" cx="62.286" cy="215.304" r="2.69"/>
      <circle fill="#603813" cx="61.519" cy="214.568" r="2.69"/>
      <circle fill="#603813" cx="86.291" cy="215.304" r="2.69"/>
      <circle fill="#603813" cx="85.522" cy="214.568" r="2.69"/>
    </g>
    <path id="bite" opacity="0" fill="#F9F9F9" d="M41.772,111.686c2.966,4.464,0.958,9.112-3.258,12.236c-4.217,3.121-8.423,3.636-12.013-0.925
      c-22.984-13.303-9.095-57.868,25.411-49.015c3.976,0.013,6.785,4.417,6.276,9.838c-0.51,5.42-4.146,9.805-8.123,9.791l0.038,0.019
      c3.81,1.759,5.033,7.229,2.732,12.215C50.536,110.832,45.583,113.447,41.772,111.686L41.772,111.686z"/>
  </g>
</svg>
