<?xml version="1.0" encoding="utf-8"?>
<!-- Generator: Adobe Illustrator 15.1.0, SVG Export Plug-In . SVG Version: 6.00 Build 0)  -->
<!DOCTYPE svg PUBLIC "-//W3C//DTD SVG 1.1//EN" "http://www.w3.org/Graphics/SVG/1.1/DTD/svg11.dtd">
<svg version="1.1" id="Layer_1" xmlns="http://www.w3.org/2000/svg" xmlns:xlink="http://www.w3.org/1999/xlink" x="0px" y="0px"
	 width="425px" height="318px" viewBox="0 0 425 318" enable-background="new 0 0 425 318" xml:space="preserve">
<g id="_x38_-bit">
	<path fill="#D9D9D9" d="M397.487,49.575h-3.513v3.513h3.513V56.6H401v7.025h-3.513v3.513h-17.562v-3.513h-3.513v-3.512h7.025v3.512
		h10.537V56.6h-10.537v-3.513h3.513v-3.513h3.513v-3.512h-10.538V42.55H401v3.512h-3.513V49.575z M351.825,63.625h7.024v-14.05
		h-3.513v-3.512h3.513V42.55h7.024v21.075h7.024v3.513h-21.074L351.825,63.625L351.825,63.625z M234.156,35.525h-7.025v14.05h-7.023
		V70.65h-7.025V84.7h-7.024v21.075h-7.025v14.05h-7.025V140.9h-7.025v21.077h-7.025v14.049h-7.024v21.076h-7.025v14.049h-7.025
		v21.074h-7.025v14.051h-7.025v21.074h-7.024V281.4h-7.025v7.023h-7.025V281.4h7.025V267.35h7.025v-21.074h7.024v-14.051h7.025
		V211.15h7.025V197.1h7.025v-21.074h7.025v-14.051h7.024V140.9h7.025v-21.075h7.025v-14.05h7.025V84.7h7.025V70.65h7.024V49.575
		h7.025v-14.05h7.023V28.5h7.025V35.525z"/>
</g>
</svg>
