<?xml version="1.0" encoding="utf-8"?>
<!-- Generator: Adobe Illustrator 15.1.0, SVG Export Plug-In . SVG Version: 6.00 Build 0)  -->
<!DOCTYPE svg PUBLIC "-//W3C//DTD SVG 1.1//EN" "http://www.w3.org/Graphics/SVG/1.1/DTD/svg11.dtd">
<svg version="1.1" id="Layer_1" xmlns="http://www.w3.org/2000/svg" xmlns:xlink="http://www.w3.org/1999/xlink" x="0px" y="0px"
	 width="430px" height="325px" viewBox="0 0 430 325" enable-background="new 0 0 430 325" xml:space="preserve">
<g>
	<path fill="#D9D9D9" d="M401.79,43.372h-4.73V24.368c0-2.268,0.054-4.066,0.16-5.395c-0.31,0.322-0.688,0.677-1.136,1.066
		c-0.451,0.389-1.958,1.624-4.521,3.705l-2.375-3l8.655-6.804h3.946L401.79,43.372L401.79,43.372z"/>
	<path fill="#D9D9D9" d="M428.255,20.704c0,1.865-0.543,3.419-1.63,4.661c-1.088,1.241-2.616,2.077-4.592,2.506v0.162
		c2.363,0.295,4.135,1.03,5.315,2.204c1.183,1.174,1.771,2.735,1.771,4.681c0,2.832-0.999,5.017-2.999,6.553
		c-2,1.537-4.846,2.305-8.535,2.305c-3.262,0-6.013-0.531-8.255-1.59v-4.207c1.249,0.618,2.57,1.094,3.967,1.43
		c1.396,0.335,2.737,0.503,4.025,0.503c2.28,0,3.986-0.423,5.114-1.269c1.127-0.845,1.689-2.153,1.689-3.925
		c0-1.57-0.623-2.725-1.871-3.462c-1.247-0.739-3.207-1.109-5.879-1.109h-2.557v-3.844h2.597c4.697,0,7.047-1.625,7.047-4.872
		c0-1.262-0.41-2.235-1.229-2.919c-0.819-0.684-2.026-1.026-3.623-1.026c-1.114,0-2.188,0.157-3.222,0.473
		c-1.033,0.315-2.255,0.929-3.664,1.841l-2.314-3.302c2.697-1.985,5.83-2.979,9.4-2.979c2.966,0,5.28,0.638,6.944,1.913
		C427.423,16.704,428.255,18.463,428.255,20.704z"/>
</g>
<rect x="155.433" y="-5.588" transform="matrix(0.9574 0.2888 -0.2888 0.9574 53.9328 -39.5378)" fill="#D9D9D9" width="11.051" height="337.188"/>
<rect y="51.458" opacity="0" fill="#D9D9D9" width="102.993" height="223.074"/>
<path opacity="0" fill="#D9D9D9" d="M190.83,162.997c0,64.681,52.434,117.114,117.118,117.114
	c64.682,0,117.119-52.434,117.119-117.114c0-64.681-52.438-117.119-117.121-117.119S190.83,98.315,190.83,162.997"/>
</svg>
