<?xml version="1.0" encoding="utf-8"?>
<!-- Generator: Adobe Illustrator 16.0.0, SVG Export Plug-In . SVG Version: 6.00 Build 0)  -->
<!DOCTYPE svg PUBLIC "-//W3C//DTD SVG 1.1//EN" "http://www.w3.org/Graphics/SVG/1.1/DTD/svg11.dtd">
<svg version="1.1" id="Layer_1" xmlns="http://www.w3.org/2000/svg" xmlns:xlink="http://www.w3.org/1999/xlink" x="0px" y="0px"
	 width="167px" height="59px" viewBox="0 0 167 59" enable-background="new 0 0 167 59" xml:space="preserve">
<path fill-rule="evenodd" clip-rule="evenodd" fill="#ADADAD" d="M163.725,39.725c-0.636,0.348-1.274,0.754-1.911,1.043
	c-1.913,0.869-3.883,1.102-5.62,1.102c-1.854,0-4.751-0.117-7.705-2.26c-4.113-2.896-5.909-7.879-5.909-12.225
	c0-8.979,7.3-13.383,13.268-13.383c2.084,0,4.229,0.521,5.967,1.623c2.896,1.911,3.649,4.402,4.054,5.735l-13.613,5.503
	l-4.461,0.349c1.448,7.356,6.431,11.644,11.935,11.644c2.954,0,5.099-1.041,7.068-2.027L163.725,39.725L163.725,39.725z
	 M158.28,22.461c1.1-0.406,1.68-0.753,1.68-1.565c0-2.317-2.606-4.982-5.735-4.982c-2.318,0-6.662,1.796-6.662,8.053
	c0,0.985,0.114,2.027,0.173,3.07L158.28,22.461L158.28,22.461z"/>
<path fill-rule="evenodd" clip-rule="evenodd" fill="#ADADAD" d="M141.188,40.998h-10.255c1.333-1.736,1.565-1.91,1.565-3.068
	v-9.444c0-4.519,0.058-10.95,0.231-16.975c0.058-2.955,0.29-6.663,0.348-9.328h-4.519l4.346-2.086h8.283
	c-1.795,1.043-2.375,1.391-2.605,3.419c-0.464,4.46-0.522,11.528-0.522,19.755v13.383c0,2.26,0.405,2.607,2.318,2.781
	c0.984,0.115,1.97,0.174,2.954,0.289L141.188,40.998L141.188,40.998z"/>
<path fill-rule="evenodd" clip-rule="evenodd" fill="#ADADAD" d="M122.187,16.841c1.331,1.101,4.112,3.418,4.112,7.821
	c0,4.287-2.434,6.314-4.866,8.227c-0.752,0.752-1.622,1.564-1.622,2.838c0,1.275,0.87,1.971,1.506,2.492l2.086,1.621
	c2.55,2.145,4.866,4.115,4.866,8.111c0,5.447-5.272,10.951-15.237,10.951c-8.4,0-12.456-3.998-12.456-8.285
	c0-2.088,1.043-5.041,4.463-7.07c3.591-2.201,8.458-2.49,11.063-2.664c-0.811-1.043-1.737-2.143-1.737-3.938
	c0-0.986,0.29-1.566,0.58-2.26c-0.639,0.057-1.274,0.115-1.854,0.115c-6.141,0-9.617-4.578-9.617-9.096
	c0-2.665,1.217-5.62,3.708-7.763c3.303-2.723,7.242-3.186,10.37-3.186h11.934l-3.707,2.085H122.187L122.187,16.841z M118.073,42.562
	c-0.464-0.057-0.754-0.057-1.332-0.057c-0.521,0-3.65,0.115-6.084,0.928c-1.274,0.463-4.982,1.852-4.982,5.967
	c0,4.111,3.998,7.066,10.197,7.066c5.562,0,8.517-2.664,8.517-6.256C124.388,47.256,122.477,45.691,118.073,42.562L118.073,42.562z
	 M119.754,31.557c1.331-1.334,1.447-3.187,1.447-4.23c0-4.171-2.491-10.66-7.3-10.66c-1.507,0-3.128,0.753-4.056,1.912
	c-0.985,1.217-1.275,2.781-1.275,4.287c0,3.881,2.26,10.312,7.242,10.312C117.261,33.178,118.826,32.482,119.754,31.557
	L119.754,31.557z"/>
<path fill-rule="evenodd" clip-rule="evenodd" fill="#ADADAD" d="M86.267,41.752c-9.211,0-14.136-7.184-14.136-13.671
	c0-7.589,6.2-14.079,15.004-14.079c8.517,0,13.848,6.663,13.848,13.673C100.983,34.512,95.71,41.752,86.267,41.752L86.267,41.752z
	 M93.508,37.061c1.391-1.855,1.738-4.172,1.738-6.432c0-5.098-2.434-14.831-9.618-14.831c-1.911,0-3.823,0.753-5.213,1.97
	c-2.258,2.028-2.665,4.577-2.665,7.068c0,5.736,2.839,15.178,9.848,15.178C89.858,40.014,92.176,38.914,93.508,37.061L93.508,37.061
	z"/>
<path fill-rule="evenodd" clip-rule="evenodd" fill="#ADADAD" d="M55.446,41.752c-9.212,0-14.137-7.184-14.137-13.671
	c0-7.589,6.199-14.079,15.006-14.079c8.516,0,13.845,6.663,13.845,13.673C70.16,34.512,64.889,41.752,55.446,41.752L55.446,41.752z
	 M62.687,37.061c1.391-1.855,1.738-4.172,1.738-6.432c0-5.098-2.433-14.831-9.616-14.831c-1.912,0-3.825,0.753-5.215,1.97
	c-2.259,2.028-2.665,4.577-2.665,7.068c0,5.736,2.839,15.178,9.85,15.178C59.038,40.014,61.354,38.914,62.687,37.061L62.687,37.061z
	"/>
<path fill-rule="evenodd" clip-rule="evenodd" fill="#ADADAD" d="M37.626,39.73l-7.767,1.791c-3.15,0.49-5.975,0.924-8.962,0.924
	c-14.99,0-20.693-11.025-20.693-19.661c0-10.537,8.093-20.313,21.943-20.313c2.933,0,5.758,0.436,8.31,1.141
	c4.073,1.141,5.975,2.553,7.169,3.369l-4.508,4.29l-1.9,0.435l1.357-2.173C30.729,7.74,27.36,4.427,20.953,4.427
	c-8.583,0-15.046,6.518-15.046,16.023c0,10.21,7.387,19.824,19.227,19.824c3.478,0,5.269-0.705,6.898-1.357v-8.744l-8.201,0.434
	l4.345-2.335H39.69l-1.412,1.358c-0.38,0.324-0.435,0.434-0.544,0.867c-0.054,0.49-0.108,2.064-0.108,2.607V39.73L37.626,39.73z"/>
</svg>
