<?xml version="1.0" encoding="utf-8"?>
<!-- Generator: Adobe Illustrator 15.1.0, SVG Export Plug-In . SVG Version: 6.00 Build 0)  -->
<!DOCTYPE svg PUBLIC "-//W3C//DTD SVG 1.1//EN" "http://www.w3.org/Graphics/SVG/1.1/DTD/svg11.dtd">
<svg version="1.1" id="Layer_2" xmlns="http://www.w3.org/2000/svg" xmlns:xlink="http://www.w3.org/1999/xlink" x="0px" y="0px"
	 width="425px" height="318px" viewBox="0 0 425 318" enable-background="new 0 0 425 318" xml:space="preserve">
<g id="_x31_3">
	<path fill="#C7C7C7" d="M372.865,62.141h-3.87V46.594c0-1.854,0.044-3.327,0.132-4.414c-0.253,0.264-0.562,0.555-0.93,0.873
		c-0.367,0.318-1.601,1.328-3.696,3.03l-1.943-2.454l7.081-5.567h3.229L372.865,62.141L372.865,62.141z"/>
	<path fill="#C7C7C7" d="M394.518,43.597c0,1.526-0.443,2.797-1.334,3.812c-0.891,1.016-2.142,1.699-3.757,2.05v0.132
		c1.935,0.241,3.383,0.844,4.35,1.804c0.966,0.961,1.449,2.236,1.449,3.829c0,2.316-0.816,4.104-2.453,5.36
		c-1.638,1.258-3.966,1.886-6.983,1.886c-2.667,0-4.919-0.434-6.752-1.301v-3.443c1.021,0.506,2.103,0.896,3.245,1.17
		c1.14,0.274,2.239,0.412,3.293,0.412c1.867,0,3.261-0.346,4.182-1.038c0.924-0.691,1.385-1.763,1.385-3.211
		c0-1.285-0.51-2.229-1.53-2.833c-1.022-0.604-2.625-0.906-4.811-0.906h-2.091v-3.145h2.125c3.842,0,5.763-1.329,5.763-3.986
		c0-1.033-0.334-1.829-1.004-2.389c-0.669-0.56-1.659-0.84-2.964-0.84c-0.912,0-1.791,0.129-2.637,0.387
		c-0.846,0.258-1.844,0.76-2.996,1.507l-1.896-2.702c2.207-1.625,4.771-2.438,7.691-2.438c2.426,0,4.32,0.521,5.683,1.564
		C393.836,40.325,394.518,41.763,394.518,43.597z"/>
</g>
<rect id="slash" x="171.331" y="22.082" transform="matrix(0.9574 0.2889 -0.2889 0.9574 53.7207 -43.9791)" fill="#D9D9D9" width="9.039" height="275.84"/>
<rect id="i-shape" x="44.168" y="68.755" opacity="0" fill="#D9D9D9" width="84.256" height="182.493"/>
<path id="o-shape" opacity="0" fill="#D9D9D9" d="M200.283,160.003c0,52.914,42.895,95.81,95.812,95.81
	c52.915,0,95.812-42.896,95.812-95.81s-42.897-95.812-95.812-95.812C243.18,64.19,200.283,107.089,200.283,160.003"/>
</svg>
