<?xml version="1.0" encoding="utf-8"?>
<!-- Generator: Adobe Illustrator 15.1.0, SVG Export Plug-In . SVG Version: 6.00 Build 0)  -->
<!DOCTYPE svg PUBLIC "-//W3C//DTD SVG 1.1//EN" "http://www.w3.org/Graphics/SVG/1.1/DTD/svg11.dtd">
<svg version="1.1" id="slash_x2B_13" xmlns="http://www.w3.org/2000/svg" xmlns:xlink="http://www.w3.org/1999/xlink" x="0px"
	 y="0px" width="367.86px" height="301.16px" viewBox="0 0 367.86 301.16" enable-background="new 0 0 367.86 301.16"
	 xml:space="preserve">
<path id="three" fill="#C2C2C2" d="M313.438,64.039v-2.982c0.885,0.437,1.82,0.775,2.812,1.013c0.987,0.237,1.94,0.357,2.851,0.357
	c1.619,0,2.827-0.3,3.625-0.899c0.8-0.6,1.2-1.527,1.2-2.782c0-1.114-0.443-1.932-1.326-2.455c-0.885-0.523-2.269-0.785-4.158-0.785
	h-1.809v-2.739h1.837c3.322,0,4.982-1.151,4.982-3.454c0-0.894-0.289-1.584-0.869-2.068c-0.58-0.485-1.435-0.728-2.569-0.728
	c-0.789,0-1.55,0.113-2.282,0.335c-0.732,0.224-1.598,0.658-2.597,1.306l-1.642-2.337c1.913-1.4,4.134-2.101,6.663-2.101
	c2.104,0,3.747,0.451,4.93,1.352c1.186,0.901,1.779,2.144,1.779,3.729c0,1.324-0.387,2.427-1.157,3.307
	c-0.77,0.881-1.855,1.474-3.253,1.779V54c1.674,0.209,2.905,0.73,3.696,1.564c0.789,0.834,1.184,1.941,1.184,3.323
	c0,2.007-0.688,3.556-2.062,4.644c-1.375,1.09-3.369,1.635-5.985,1.635C316.974,65.166,315.025,64.79,313.438,64.039z"/>
<path id="one" fill="#C2C2C2" d="M299.159,48.842l6.136-4.823h2.797v20.862h-3.353V51.411c0-1.608,0.037-2.883,0.112-3.824
	c-0.22,0.228-0.486,0.479-0.806,0.756c-0.319,0.276-1.386,1.151-3.204,2.625L299.159,48.842z"/>
<rect id="slash" x="145.523" y="31.502" transform="matrix(-0.9542 -0.2992 0.2992 -0.9542 245.4685 345.6487)" fill="#E0E0E0" width="7.344" height="245.061"/>
</svg>
